<svg data-name="Layer 1" viewBox="0 0 932 567.59" xmlns="http://www.w3.org/2000/svg"><path d="M39.38 518.22a24.215 24.215 0 0 0 23.383-4.119c8.19-6.874 10.758-18.196 12.847-28.682l6.18-31.017-12.938 8.909c-9.305 6.406-18.818 13.019-25.26 22.298s-9.253 21.947-4.078 31.988" fill="#e6e6e6" data-name="Path 438"/><path d="M41.37 557.93c-1.628-11.864-3.304-23.881-2.159-35.872 1.015-10.649 4.264-21.049 10.878-29.579a49.206 49.206 0 0 1 12.625-11.44c1.262-.796 2.424 1.204 1.168 1.997a46.779 46.779 0 0 0-18.504 22.326c-4.03 10.246-4.676 21.416-3.982 32.3.42 6.582 1.31 13.121 2.206 19.653a1.198 1.198 0 0 1-.808 1.423 1.163 1.163 0 0 1-1.423-.808z" fill="#f2f2f2" data-name="Path 439"/><path d="M53.1 538.9a17.825 17.825 0 0 0 15.531 8.019c7.864-.374 14.418-5.86 20.317-11.07l17.452-15.41-11.55-.552c-8.306-.398-16.827-.771-24.738 1.793s-15.208 8.727-16.654 16.915" fill="#e6e6e6" data-name="Path 442"/><path d="M36.77 564.75c7.84-13.871 16.932-29.288 33.181-34.216a37.026 37.026 0 0 1 13.955-1.441c1.482.128 1.112 2.412-.367 2.284a34.398 34.398 0 0 0-22.272 5.893c-6.28 4.274-11.17 10.218-15.308 16.519-2.535 3.86-4.806 7.884-7.076 11.903-.726 1.284-2.848.357-2.114-.943z" fill="#f2f2f2" data-name="Path 443"/><path fill="#e6e6e6" data-name="Rectangle 62" d="M175.25 17.775h648.37v307.66H175.25z"/><path fill="#fff" data-name="Rectangle 75" d="M193.79 44.158h611.29v256.69H193.79z"/><path fill="#6c63ff" data-name="Rectangle 80" d="M174.98 0h648.37v27.544H174.98z"/><circle cx="195.44" cy="12.741" r="5.105" fill="#fff" data-name="Ellipse 90"/><circle cx="214.82" cy="12.741" r="5.105" fill="#fff" data-name="Ellipse 91"/><circle cx="234.2" cy="12.741" r="5.105" fill="#fff" data-name="Ellipse 92"/><path transform="translate(-134 -166.21)" d="M472.17 407h308.95v-52.953a41.929 41.929 0 0 0-12.86-29.866l-.084-.082c-5.518-5.537-23.959-19.588-43.04-18.397-10.079.627-18.708 5.485-25.647 14.438-21.599 27.877-49.972 18.467-64.962 10.377-13.211-7.131-26.702-10.479-40.102-9.946-18.767.734-45.182 7.648-64.446 36.417-7.358 10.98-23.359 25.883-57.81 34.642z" fill="#e4e4e4" style="isolation:isolate"/><path d="M664.6 242.02H338.76a1.02 1.02 0 0 1-1.02-1.02V84.83a1.02 1.02 0 0 1 2.04 0v155.15H664.6a1.02 1.02 0 0 1 0 2.04z" fill="#3f3d56"/><path fill="#3f3d56" d="M398.74 181.96h2v58.622h-2zM458.62 154.59h2v86h-2zM518.62 172.59h2v68h-2zM578.62 139.59h2v101h-2zM638.62 162.59h2v78h-2z"/><circle cx="459.74" cy="155.96" r="6.118" fill="#6c63ff"/><circle cx="579.74" cy="139.96" r="6.118" fill="#6c63ff"/><circle cx="519.74" cy="172.96" r="6.118" fill="#6c63ff"/><circle cx="399.74" cy="181.96" r="6.118" fill="#6c63ff"/><circle cx="639.74" cy="161.96" r="6.118" fill="#6c63ff"/><path fill="#ffb6b6" d="M136.91 555.47h12.26l5.83-47.29h-18.09z"/><path d="m133.79 551.46 24.144-.001h.001a15.387 15.387 0 0 1 15.386 15.386v.5l-39.531.001z" fill="#2f2e41"/><path fill="#ffb6b6" d="M194.91 555.47h12.26l5.83-47.29h-18.09z"/><path d="m191.79 551.46 24.144-.001h.001a15.387 15.387 0 0 1 15.386 15.386v.5l-39.531.001z" fill="#2f2e41"/><path d="M217.79 339.28a10.743 10.743 0 0 0-2.512-16.28l-19.951-95.789-21.736 8.564 26.446 91.465a10.801 10.801 0 0 0 17.753 12.04z" fill="#ffb6b6"/><path d="m123.76 320.83-9.037 9.173s-9.688 35.503 8.851 79.289l12.4 126.95 22.31 1.68 6.66-147.7 30.73 49.026-5.367 98.145 24.66-.567 11.147-108.75-30.44-113.48z" fill="#2f2e41"/><path d="M155.36 333.19a345.95 345.95 0 0 1-40.698-2.688l-.543-.073 13.467-59.186-4.637-76.15 43.788-1.5a16.09 16.09 0 0 1 16.505 13.763l8.961 60.755 8.29 53.902-.11.162c-5.958 8.736-25.877 11.014-45.022 11.014z" fill="#6c63ff"/><path d="m162.75 206.19 8.897-11.153s15.597-10.666 20.533 12.19 14.107 59.96 14.107 59.96l-30.498 2.47z" fill="#6c63ff"/><path d="M78.44 340.28A10.743 10.743 0 0 1 80.952 324l19.951-95.789 21.736 8.564-26.446 91.465a10.801 10.801 0 0 1-17.753 12.04z" fill="#ffb6b6"/><path d="m133.48 207.19-8.897-11.153s-15.597-10.666-20.533 12.19-14.107 59.96-14.107 59.96l30.498 2.47z" fill="#6c63ff"/><path d="M170.98 182.46h-58a4.505 4.505 0 0 1-4.5-4.5v-25a33.5 33.5 0 1 1 67 0v25a4.505 4.505 0 0 1-4.5 4.5z" fill="#2f2e41"/><circle cx="148.38" cy="156.39" r="24.561" fill="#ffb6b6"/><path d="M183.4 155.46h-35.466l-.364-5.092-1.818 5.092h-5.461l-.72-10.092-3.605 10.092H125.4v-.5a26.53 26.53 0 0 1 26.5-26.5h5a26.53 26.53 0 0 1 26.5 26.5z" fill="#2f2e41"/><path d="M147.65 187.13a4.596 4.596 0 0 1-.796-.07l-25.97-4.582v-42.92h28.588l-.708.825c-9.847 11.484-2.429 30.106 2.87 40.185a4.433 4.433 0 0 1-.352 4.707 4.482 4.482 0 0 1-3.632 1.855z" fill="#2f2e41"/><path fill="#9e616a" d="M864.32 555.47h-12.26l-5.83-47.29h18.1z"/><path d="m867.5 567.35-39.531-.001v-.5a15.387 15.387 0 0 1 15.386-15.386H867.5z" fill="#2f2e41"/><path fill="#9e616a" d="M820.32 555.47h-12.26l-5.83-47.29h18.1z"/><path d="m823.45 567.35-39.531-.001v-.5a15.387 15.387 0 0 1 15.386-15.386h24.145z" fill="#2f2e41"/><path d="M677.54 224.11a11.396 11.396 0 0 0 17.434 1.195l24.259 9.473 9.352-13.338-34.446-12.897a11.458 11.458 0 0 0-16.599 15.567z" fill="#9e616a"/><path fill="#2f2e41" d="m820.17 304.92-31.94 10.42 10.67 226.2 24.65.61 12.61-159.52 2.87 158.89 30.48 1.68 11.23-238.28z"/><path d="m798.62 171.58 81.975-17.811 9.116 70.585-7.59 33.726 3.04 51.254s-64.82 32.261-96.93 6.004c0 0 25.809-67.79 10.849-99.524z" fill="#3f3d56"/><path d="m812.82 181.57-14.197-9.984s-.839-1.161-12.669 12.67-35.831 35.83-35.831 35.83l-40-15-7.287 26.925 46.488 21.664 65.816-43.955z" fill="#3f3d56"/><path d="M885.2 335.8a11.396 11.396 0 0 0 4.422-16.906l13.827-22.069-11.362-11.673-19.088 31.44a11.458 11.458 0 0 0 12.202 19.209z" fill="#9e616a"/><path d="m867.8 167.68 12.786-13.905s14.246-4.961 25.886 20.675 24.639 77.636 24.639 77.636l-30.395 58.547-23.605-10.547 23.605-48.413-24.979-35.853z" fill="#3f3d56"/><circle transform="rotate(-28.663 575.09 469.99)" cx="967.36" cy="290.84" r="26.609" fill="#9e616a"/><path d="m858.39 103.36 1.29-2.596-6.491-3.225s-7.16-11.651-20.118-8.377-18.787 5.233-18.787 5.233l-6.475 3.258 3.25 3.233-5.83 1.96 3.895 1.935-4.531 2.605 2.44 13.352s4.05-10.127 11.84-6.257 22.036-2 22.036-2l12.378 23.954s2.554-8.397 7.106-6.158c0 0 11.631-18.524-2.003-26.917z" fill="#2f2e41"/><path d="M300 567.58H1a1 1 0 0 1 0-2h299a1 1 0 0 1 0 2zM931 567.58H702a1 1 0 0 1 0-2h229a1 1 0 0 1 0 2z" fill="#cacaca"/></svg>
