<?xml version="1.0" encoding="UTF-8"?>
<svg data-name="Layer 1" viewBox="0 0 932 567.59" xmlns="http://www.w3.org/2000/svg">
<path transform="translate(-134 -166.21)" d="m173.38 684.43a24.215 24.215 0 0 0 23.383-4.1188c8.1898-6.8744 10.758-18.196 12.847-28.682l6.1797-31.017-12.938 8.9084c-9.3046 6.4064-18.818 13.019-25.26 22.298s-9.2522 21.947-4.0779 31.988" fill="#e6e6e6" data-name="Path 438"/>
<path transform="translate(-134 -166.21)" d="m175.37 724.14c-1.6284-11.864-3.3038-23.881-2.1588-35.872 1.0147-10.649 4.2637-21.049 10.878-29.579a49.206 49.206 0 0 1 12.625-11.44c1.2622-0.79647 2.4241 1.2035 1.1673 1.997a46.779 46.779 0 0 0-18.504 22.326c-4.0286 10.246-4.6754 21.416-3.9815 32.3 0.41944 6.5822 1.3107 13.121 2.2059 19.653a1.1982 1.1982 0 0 1-0.808 1.4225 1.1635 1.1635 0 0 1-1.4225-0.808z" fill="#f2f2f2" data-name="Path 439"/>
<path transform="translate(-134 -166.21)" d="m187.1 705.11a17.825 17.825 0 0 0 15.531 8.0186c7.8644-0.37318 14.418-5.8597 20.317-11.07l17.452-15.409-11.55-0.55281c-8.3062-0.39784-16.827-0.771-24.738 1.7934s-15.208 8.7264-16.654 16.915" fill="#e6e6e6" data-name="Path 442"/>
<path transform="translate(-134 -166.21)" d="m170.77 730.96c7.8397-13.871 16.932-29.288 33.181-34.216a37.026 37.026 0 0 1 13.955-1.441c1.4819 0.128 1.1118 2.4117-0.367 2.2845a34.398 34.398 0 0 0-22.272 5.8922c-6.2799 4.2745-11.17 10.218-15.308 16.519-2.5351 3.8605-4.8058 7.8844-7.0764 11.903-0.72556 1.2845-2.8474 0.35692-2.1134-0.94224z" fill="#f2f2f2" data-name="Path 443"/>
<rect x="175.25" y="17.775" width="648.37" height="307.66" fill="#e6e6e6" data-name="Rectangle 62"/>
<rect x="193.79" y="44.158" width="611.29" height="256.69" fill="#fff" data-name="Rectangle 75"/>
<rect x="174.98" width="648.37" height="27.544" fill="#6c63ff" data-name="Rectangle 80"/>
<circle cx="195.44" cy="12.741" r="5.1053" fill="#fff" data-name="Ellipse 90"/>
<circle cx="214.82" cy="12.741" r="5.1053" fill="#fff" data-name="Ellipse 91"/>
<circle cx="234.2" cy="12.741" r="5.1053" fill="#fff" data-name="Ellipse 92"/>
<path transform="translate(-134 -166.21)" d="m472.17 407h308.95v-52.953a41.929 41.929 0 0 0-12.86-29.866l-0.084-0.082c-5.5181-5.5366-23.959-19.588-43.04-18.397-10.079 0.62744-18.708 5.4849-25.647 14.438-21.599 27.877-49.972 18.467-64.962 10.377-13.211-7.1314-26.702-10.479-40.102-9.9458-18.767 0.73389-45.182 7.6475-64.446 36.417-7.3577 10.979-23.359 25.883-57.81 34.642z" fill="#e4e4e4" style="isolation:isolate"/>
<path transform="translate(-134 -166.21)" d="m798.6 408.23h-325.84a1.0198 1.0198 0 0 1-1.0197-1.0197v-156.17a1.0197 1.0197 0 0 1 2.0394 0v155.15h324.82a1.0197 1.0197 0 0 1 0 2.0394z" fill="#3f3d56"/>
<rect x="398.74" y="181.96" width="2" height="58.622" fill="#3f3d56"/>
<rect x="458.62" y="154.59" width="2" height="86" fill="#3f3d56"/>
<rect x="518.62" y="172.59" width="2" height="68" fill="#3f3d56"/>
<rect x="578.62" y="139.59" width="2" height="101" fill="#3f3d56"/>
<rect x="638.62" y="162.59" width="2" height="78" fill="#3f3d56"/>
<circle cx="459.74" cy="155.96" r="6.1183" fill="#6c63ff"/>
<circle cx="579.74" cy="139.96" r="6.1183" fill="#6c63ff"/>
<circle cx="519.74" cy="172.96" r="6.1183" fill="#6c63ff"/>
<circle cx="399.74" cy="181.96" r="6.1183" fill="#6c63ff"/>
<circle cx="639.74" cy="161.96" r="6.1183" fill="#6c63ff"/>
<polygon points="136.91 555.47 149.17 555.47 155 508.18 136.91 508.18" fill="#ffb6b6"/>
<path transform="translate(-134 -166.21)" d="m267.79 717.67 24.144-1e-3h1e-3a15.387 15.387 0 0 1 15.386 15.386v0.5l-39.531 0.00147z" fill="#2f2e41"/>
<polygon points="194.91 555.47 207.17 555.47 213 508.18 194.91 508.18" fill="#ffb6b6"/>
<path transform="translate(-134 -166.21)" d="m325.79 717.67 24.144-1e-3h1e-3a15.387 15.387 0 0 1 15.386 15.386v0.5l-39.531 0.00147z" fill="#2f2e41"/>
<path transform="translate(-134 -166.21)" d="m351.79 505.49a10.743 10.743 0 0 0-2.5124-16.28l-19.951-95.789-21.736 8.5637 26.446 91.465a10.801 10.801 0 0 0 17.753 12.041z" fill="#ffb6b6"/>
<path transform="translate(-134 -166.21)" d="m257.76 487.04-9.0365 9.1728s-9.6884 35.503 8.8509 79.289l12.4 126.95 22.31 1.6799 6.66-147.7 30.73 49.026-5.3676 98.145 24.661-0.56693 11.146-108.75-30.439-113.48z" fill="#2f2e41"/>
<path transform="translate(-134 -166.21)" d="m289.36 499.4a345.95 345.95 0 0 1-40.698-2.6884l-0.54346-0.07226 13.467-59.186-4.637-76.151 43.788-1.5a16.09 16.09 0 0 1 16.505 13.764l8.9619 60.755 8.29 53.902-0.11108 0.16211c-5.9574 8.7353-25.876 11.014-45.021 11.014z" fill="#6c63ff"/>
<path transform="translate(-134 -166.21)" d="m296.75 372.4 8.8968-11.153s15.597-10.666 20.533 12.19 14.107 59.96 14.107 59.96l-30.498 2.4697z" fill="#6c63ff"/>
<path transform="translate(-134 -166.21)" d="m212.44 506.49a10.743 10.743 0 0 1 2.5124-16.28l19.951-95.789 21.736 8.5637-26.446 91.465a10.801 10.801 0 0 1-17.753 12.041z" fill="#ffb6b6"/>
<path transform="translate(-134 -166.21)" d="m267.48 373.4-8.8968-11.153s-15.597-10.666-20.533 12.19-14.107 59.96-14.107 59.96l30.498 2.4697z" fill="#6c63ff"/>
<path transform="translate(-134 -166.21)" d="m304.98 348.67h-58a4.5051 4.5051 0 0 1-4.5-4.5v-25a33.5 33.5 0 1 1 67 0v25a4.5051 4.5051 0 0 1-4.5 4.5z" fill="#2f2e41"/>
<circle cx="148.38" cy="156.39" r="24.561" fill="#ffb6b6"/>
<path transform="translate(-134 -166.21)" d="m317.4 321.67h-35.466l-0.36377-5.0918-1.8184 5.0918h-5.4609l-0.7207-10.092-3.604 10.092h-10.567v-0.5a26.53 26.53 0 0 1 26.5-26.5h5.0002a26.53 26.53 0 0 1 26.5 26.5z" fill="#2f2e41"/>
<path transform="translate(-134 -166.21)" d="m281.65 353.34a4.5963 4.5963 0 0 1-0.79639-0.07031l-25.969-4.582v-42.92h28.587l-0.70776 0.82519c-9.8472 11.484-2.4285 30.106 2.8701 40.185a4.4334 4.4334 0 0 1-0.3523 4.707 4.4819 4.4819 0 0 1-3.6316 1.8555z" fill="#2f2e41"/>
<polygon points="864.32 555.47 852.06 555.47 846.23 508.18 864.33 508.18" fill="#9e616a"/>
<path transform="translate(-134 -166.21)" d="m1001.5 733.56-39.531-0.00147v-0.5a15.387 15.387 0 0 1 15.386-15.386h1e-3l24.144 1e-3z" fill="#2f2e41"/>
<polygon points="820.32 555.47 808.06 555.47 802.23 508.18 820.33 508.18" fill="#9e616a"/>
<path transform="translate(-134 -166.21)" d="m957.45 733.56-39.531-0.00147v-0.5a15.387 15.387 0 0 1 15.386-15.386h1e-3l24.144 1e-3z" fill="#2f2e41"/>
<path transform="translate(-134 -166.21)" d="m811.54 390.32a11.396 11.396 0 0 0 17.434 1.1946l24.259 9.4731 9.3523-13.338-34.446-12.897a11.458 11.458 0 0 0-16.599 15.567z" fill="#9e616a"/>
<polygon points="820.17 304.92 788.23 315.34 798.9 541.54 823.55 542.15 836.16 382.63 839.03 541.52 869.51 543.2 880.74 304.92" fill="#2f2e41"/>
<path transform="translate(-134 -166.21)" d="m932.62 337.79 81.975-17.811 9.1158 70.585-7.5906 33.726 3.0404 51.254s-64.819 32.261-96.93 6.0037c0 0 25.809-67.79 10.849-99.524z" fill="#3f3d56"/>
<path transform="translate(-134 -166.21)" d="m946.82 347.78-14.197-9.9839s-0.83858-1.1614-12.669 12.669-35.831 35.831-35.831 35.831l-40-15-7.2874 26.925 46.488 21.664 65.816-43.955z" fill="#3f3d56"/>
<path transform="translate(-134 -166.21)" d="m1019.2 502.01a11.396 11.396 0 0 0 4.4216-16.906l13.827-22.069-11.362-11.673-19.088 31.44a11.458 11.458 0 0 0 12.202 19.209z" fill="#9e616a"/>
<path transform="translate(-134 -166.21)" d="m1001.8 333.89 12.786-13.905s14.246-4.9611 25.886 20.675 24.639 77.636 24.639 77.636l-30.395 58.547-23.605-10.547 23.605-48.413-24.979-35.853z" fill="#3f3d56"/>
<circle transform="translate(-154.96 333.44) rotate(-28.663)" cx="967.36" cy="290.84" r="26.609" fill="#9e616a"/>
<path transform="translate(-134 -166.21)" d="m992.39 269.57 1.29-2.5964-6.491-3.225s-7.1606-11.651-20.118-8.3768-18.787 5.2337-18.787 5.2337l-6.4745 3.2578 3.2495 3.2332-5.8295 1.9596 3.8946 1.935-4.5314 2.6046 2.4394 13.352s4.0516-10.127 11.841-6.2569 22.036-2.0005 22.036-2.0005l12.378 23.955s2.5536-8.3974 7.1064-6.1583c1e-4 2e-5 11.631-18.524-2.0036-26.917z" fill="#2f2e41"/>
<path transform="translate(-134 -166.21)" d="m434 733.79h-299a1 1 0 0 1 0-2h299a1 1 0 0 1 0 2z" fill="#cacaca"/>
<path transform="translate(-134 -166.21)" d="m1065 733.79h-229a1 1 0 0 1 0-2h229a1 1 0 0 1 0 2z" fill="#cacaca"/>
</svg>
