<?xml version="1.0" encoding="UTF-8"?>
<svg width="1080" height="1080" version="1.1" viewBox="0 0 800 480" xml:space="preserve" xmlns="http://www.w3.org/2000/svg">

  <style>
    @keyframes proximity {
    0% { transform: translateX(0);transform: rotate(0deg); }
    100% { transform: translateX(-20px);transform: rotate(-40deg);  }
    }
    
    .rotate {
     animation: proximity 2s ease  forwards;
     transform-origin: center;
    }


  </style>


<g transform="translate(540 540)">
<rect x="-540" y="-540" width="1080" height="1080" rx="0" ry="0" fill="#fff" vector-effect="non-scaling-stroke" visibility="hidden"/>
</g>
<g  transform="matrix(.13 0 0 -.13 424.76 249.52)">
<path transform="translate(-932.5 -2519.6)" d="m735 2741-40-6 78-46-7-61c-3-33-6-114-6-179 0-109-1-118-20-124-11-3-20-13-20-21 0-11 19-14 91-14 67 0 90 3 87 12-3 7-13 15-24 18-16 4-20 16-22 66-3 54-1 64 23 92 15 18 30 32 34 32s26-36 50-80c23-44 46-82 52-85 14-9 11-25-6-25-8 0-15-7-15-15 0-12 17-15 90-15 70 0 90 3 90 14 0 8-11 17-25 20-25 6-106 111-145 187-18 35-18 36 2 70 40 66 81 110 121 130 54 28 34 40-61 38-79-2-103-19-67-45 17-13 17-14 0-41-24-37-126-143-137-143-4 0-8 40-8 90 0 87 1 90 25 96 16 4 25 13 25 25 0 17-7 19-62 18-35-1-81-5-103-8zm98-418c-7-2-19-2-25 0-7 3-2 5 12 5s19-2 13-5z" fill="#fff" stroke-linecap="round" vector-effect="non-scaling-stroke"/>
</g>
<g transform="matrix(.13 0 0 -.13 158.47 216.37)">
<path transform="translate(-3929.7 -2765)" d="m3927 2782c-34-35-49-72-28-72 16 0 71 70 71 90 0 11-1 20-3 20s-20-17-40-38z" fill="#fff" stroke-linecap="round" vector-effect="non-scaling-stroke"/>
</g>
<g transform="matrix(.15 0 0 -.15 196.11 242.73)">
<path transform="translate(-1997.1 -2560.9)" d="m1856 3099c-65-15-170-77-223-132-106-107-165-254-165-412-1-159 54-288 168-395 169-158 386-191 591-90 438 216 383 857-86 1017-71 24-208 30-285 12zm263-88c385-120 435-661 77-836-179-88-371-58-516 81-129 123-170 296-110 470 50 144 152 245 295 290 61 19 184 17 254-5z" fill="#fff" stroke-linecap="round" vector-effect="non-scaling-stroke"/>
</g>
<g transform="matrix(.13 0 0 -.13 517.57 242.79)">
<path transform="translate(-3109.8 -2564.4)" d="m2979 3096c-174-48-325-211-374-401-20-78-19-226 1-296 27-91 73-165 145-233 107-101 216-145 359-146 146 0 259 48 371 160 63 63 81 88 109 155 29 69 34 94 38 184 5 127-7 189-59 299-65 136-180 232-328 276-65 19-196 20-262 2zm312-104c222-106 324-405 214-624-35-70-73-113-139-160-222-156-540-72-663 177-28 56-34 86-34 177-1 207 141 401 330 455 27 7 84 12 136 10 77-3 100-8 156-35z" fill="#fff" stroke-linecap="round" vector-effect="non-scaling-stroke"/>
</g>
<g transform="matrix(.17 0 0 -.17 695.37 246.2)">
<path transform="translate(-3113.8 -2523.6)" d="m2798 2743c-32-5-38-33-8-33 21 0 18 9 95-261 20-69 40-131 43-137 4-6 20-12 36-14 29-3 30-2 75 129 25 73 49 133 53 133 7 0 63-150 81-218l11-43 45 3 44 3 65 194c57 170 69 196 94 210 15 9 26 21 25 26-4 11-109 19-144 10-26-6-21-30 8-38 12-3 19-14 19-30 0-34-89-307-100-307-14 0-90 253-90 302 0 20 7 28 30 37 17 6 30 17 30 27 0 14-10 16-85 12-47-2-88-8-92-12-5-4 4-17 20-28 15-11 27-28 27-39 0-42-107-333-110-299 0 3-18 75-39 159-22 84-37 159-34 166 2 8 14 15 26 17s22 10 22 18c0 12-14 15-60 16-33 1-72-1-87-3z" fill="#fff" stroke-linecap="round" vector-effect="non-scaling-stroke"/>
</g>
<g transform="matrix(.15 0 0 -.15 202.09 253.17)">
<path transform="translate(-1946.4 -2520.4)" d="m1888 2743c-32-5-36-18-9-32 33-18 46-67 32-120-23-89-63-211-70-211-10 0-93 287-89 308 2 9 13 18 26 20 12 2 22 10 22 18 0 11-18 14-85 14-87 0-107-10-60-32 14-6 25-16 25-22s26-94 57-195c48-151 62-185 81-194 32-15 44 2 72 98 41 145 37 144 79 20 36-106 39-110 68-113l30-3 48 138c90 259 96 271 136 285 31 11-3 19-72 16-68-3-72-4-56-20 9-9 22-18 29-20 10-4 7-21-10-74-54-161-81-228-85-214-40 120-68 213-73 246-6 38-4 43 17 49 26 8 40 25 33 37-5 8-95 9-146 1zm109-283c17-50 28-90 24-90-9 0-35 63-57 137-24 79 1 44 33-47z" fill="#fff" stroke-linecap="round" vector-effect="non-scaling-stroke"/>
</g>
<g transform="matrix(.03 0 0 -.03 212.75 142.22)">
<path transform="translate(-3109.8 -2564.4)" d="m2979 3096c-174-48-325-211-374-401-20-78-19-226 1-296 27-91 73-165 145-233 107-101 216-145 359-146 146 0 259 48 371 160 63 63 81 88 109 155 29 69 34 94 38 184 5 127-7 189-59 299-65 136-180 232-328 276-65 19-196 20-262 2zm312-104c222-106 324-405 214-624-35-70-73-113-139-160-222-156-540-72-663 177-28 56-34 86-34 177-1 207 141 401 330 455 27 7 84 12 136 10 77-3 100-8 156-35z" fill-opacity="0" stroke-linecap="round" vector-effect="non-scaling-stroke"/>
</g>
<g transform="matrix(.13 0 0 -.13 358.91 185.83)">
<path transform="translate(-3045.3 -2819.8)" d="m3010 2846c-6-8-10-25-8-38 4-30 56-38 75-12 17 23 16 29-3 48-19 20-48 20-64 2z" fill="#fff" stroke-linecap="round" vector-effect="non-scaling-stroke"/>
</g>
<g transform="matrix(.24 0 0 -.24 365.76 256.13)">
<path transform="translate(-2171.6 -2514.1)" d="m2081 2632c-9-7-10-12-2-16 7-5 11-43 11-102 0-76 3-94 15-94 8 0 18 12 21 28 11 45 14 45 69-7 30-28 59-51 64-51 21 0 10 34-24 76-30 36-34 47-25 63 16 30 12 66-10 86s-98 31-119 17zm101-46c19-28 0-66-34-66-15 0-18 8-18 46 0 42 1 45 23 38 12-4 25-12 29-18z" fill="#f2f2f2" stroke-linecap="round" vector-effect="non-scaling-stroke"/>
</g>
<g transform="matrix(.43 0 0 -.47 512.47 241.02)">
<path transform="translate(-1665.5 -2511.8)" d="m1597 2603c-4-3-7-46-7-95 0-81 2-88 20-88 17 0 20 7 20 50 0 28 4 50 9 50s30-24 56-52l46-53-3 92c-2 64-7 93-15 93-6 0-13-17-15-37l-3-36-48 41c-53 46-51 45-60 35z" fill="#fff" stroke-linecap="round" vector-effect="non-scaling-stroke"/>
</g>
<g transform="matrix(.35 0 0 -.35 305.32 255.17)">
<path transform="translate(-1890.3 -2504.9)" d="m1850 2593c-29-10-50-48-50-90 0-34 5-46 32-68 26-22 39-26 67-21 64 10 101 81 71 137-19 35-79 57-120 42zm68-39c25-17 31-71 10-92-31-31-98 9-98 58 0 48 43 66 88 34z" fill="#fff" stroke-linecap="round" vector-effect="non-scaling-stroke"/>
</g>
<g transform="matrix(.13 0 0 -.13 129.76 172.32)">
<path class='rotate' transform="translate(-2275.6 -2017.9)" d="m2221 2054c-26-33-26-45-3-74 38-47 132-18 132 41 0 57-92 80-129 33z" fill="#fff" stroke-linecap="round" vector-effect="non-scaling-stroke"/>
</g>
<g  transform="matrix(.13 0 0 -.13 282.53 169.57)">
<path class='rotate' transform="translate(-2849.3 -2018.3)" d="m2796 2061c-27-30-18-83 17-99 32-16 91-1 101 24 26 67-70 128-118 75z" fill="#fff" stroke-linecap="round" vector-effect="non-scaling-stroke"/>
</g>
<g transform="matrix(.35 0 0 -.35 610.48 245.47)">
<path transform="translate(-1890.3 -2504.9)" d="m1850 2593c-29-10-50-48-50-90 0-34 5-46 32-68 26-22 39-26 67-21 64 10 101 81 71 137-19 35-79 57-120 42zm68-39c25-17 31-71 10-92-31-31-98 9-98 58 0 48 43 66 88 34z" fill="#fff" stroke-linecap="round" vector-effect="non-scaling-stroke"/>
</g>

</svg>