</svg>
<?xml version="1.0" encoding="UTF-8"?>
<svg width="1080" height="1080" version="1.1" viewBox="0 0 670 460" xml:space="preserve" xmlns="http://www.w3.org/2000/svg">
<g transform="matrix(.22 0 0 -.22 196.11 242.73)">
<path transform="translate(-1997.1 -2560.9)" d="m1856 3099c-65-15-170-77-223-132-106-107-165-254-165-412-1-159 54-288 168-395 169-158 386-191 591-90 438 216 383 857-86 1017-71 24-208 30-285 12zm263-88c385-120 435-661 77-836-179-88-371-58-516 81-129 123-170 296-110 470 50 144 152 245 295 290 61 19 184 17 254-5z" fill="#fff" stroke-linecap="round" vector-effect="non-scaling-stroke"/>
</g>
<g transform="matrix(.22 0 0 -.22 202.09 253.17)">
<path transform="translate(-1976.4 -2520.4)" d="m1888 2743c-32-5-36-18-9-32 33-18 46-67 32-120-23-89-63-211-70-211-10 0-93 287-89 308 2 9 13 18 26 20 12 2 22 10 22 18 0 11-18 14-85 14-87 0-107-10-60-32 14-6 25-16 25-22s26-94 57-195c48-151 62-185 81-194 32-15 44 2 72 98 41 145 37 144 79 20 36-106 39-110 68-113l30-3 48 138c90 259 96 271 136 285 31 11-3 19-72 16-68-3-72-4-56-20 9-9 22-18 29-20 10-4 7-21-10-74-54-161-81-228-85-214-40 120-68 213-73 246-6 38-4 43 17 49 26 8 40 25 33 37-5 8-95 9-146 1zm109-283c17-50 28-90 24-90-9 0-35 63-57 137-24 79 1 44 33-47z" fill="#fff" stroke-linecap="round" vector-effect="non-scaling-stroke"/>
</g>
<g transform="matrix(.16 0 0 -.16 129.76 172.32)">
<path transform="translate(-2175.6 -2017.9)" d="m2221 2054c-26-33-26-45-3-74 38-47 132-18 132 41 0 57-92 80-129 33z" fill="#fff" stroke-linecap="round" vector-effect="non-scaling-stroke"/>
</g>
</svg>
