<svg data-name="Layer 1" viewBox="0 0 811 304" xmlns="http://www.w3.org/2000/svg"><path d="M23.27 268.34a17.584 17.584 0 0 0 16.98-2.991c5.947-4.992 7.812-13.214 9.33-20.828l4.487-22.524-9.395 6.47c-6.757 4.651-13.666 9.453-18.343 16.191s-6.72 15.938-2.962 23.23" fill="#e6e6e6" data-name="Path 438"/><path d="M24.72 297.18c-1.183-8.615-2.4-17.342-1.568-26.049.737-7.733 3.096-15.285 7.9-21.48a35.733 35.733 0 0 1 9.168-8.308c.916-.578 1.76.874.847 1.45a33.97 33.97 0 0 0-13.438 16.212c-2.925 7.44-3.395 15.552-2.89 23.456.304 4.78.95 9.529 1.601 14.271a.87.87 0 0 1-.587 1.033.845.845 0 0 1-1.033-.586z" fill="#f2f2f2" data-name="Path 439"/><path d="M33.23 283.36a12.944 12.944 0 0 0 11.279 5.823c5.711-.271 10.47-4.255 14.754-8.039l12.673-11.19-8.387-.401c-6.032-.29-12.22-.56-17.964 1.302s-11.044 6.337-12.094 12.284" fill="#e6e6e6" data-name="Path 442"/><path d="M21.38 302.13c5.693-10.073 12.296-21.268 24.095-24.847a26.888 26.888 0 0 1 10.134-1.046c1.076.093.807 1.75-.267 1.659a24.979 24.979 0 0 0-16.173 4.278 42.038 42.038 0 0 0-11.116 11.996c-1.84 2.804-3.49 5.726-5.138 8.644-.527.933-2.068.26-1.535-.684z" fill="#f2f2f2" data-name="Path 443"/><path d="M544.03 255.18a24.215 24.215 0 0 0 23.383-4.119c8.19-6.874 10.758-18.196 12.847-28.682l6.18-31.017-12.938 8.909c-9.305 6.406-18.818 13.019-25.26 22.298s-9.252 21.947-4.078 31.988" fill="#e6e6e6" data-name="Path 438"/><path d="M546.02 294.89c-1.628-11.864-3.304-23.881-2.159-35.872 1.015-10.649 4.264-21.049 10.878-29.579a49.206 49.206 0 0 1 12.625-11.44c1.262-.796 2.424 1.203 1.167 1.997a46.779 46.779 0 0 0-18.504 22.326c-4.028 10.246-4.675 21.416-3.981 32.3.42 6.582 1.31 13.121 2.206 19.653a1.198 1.198 0 0 1-.808 1.423 1.163 1.163 0 0 1-1.423-.808z" fill="#f2f2f2" data-name="Path 439"/><path d="M557.75 275.85a17.825 17.825 0 0 0 15.531 8.019c7.864-.374 14.418-5.86 20.317-11.07l17.452-15.41-11.55-.552c-8.306-.398-16.827-.771-24.738 1.793s-15.208 8.727-16.654 16.915" fill="#e6e6e6" data-name="Path 442"/><path d="M541.42 301.71c7.84-13.871 16.932-29.288 33.181-34.216a37.026 37.026 0 0 1 13.955-1.441c1.482.128 1.112 2.412-.367 2.285a34.398 34.398 0 0 0-22.272 5.892c-6.28 4.274-11.17 10.218-15.308 16.519-2.535 3.86-4.806 7.884-7.076 11.903-.726 1.284-2.848.357-2.114-.942z" fill="#f2f2f2" data-name="Path 443"/><path transform="translate(-194.5 -298)" d="M665.05 344.46a3.675 3.675 0 0 1-2.047-4.441 1.766 1.766 0 0 0 .08-.408 1.843 1.843 0 0 0-3.311-1.22 1.766 1.766 0 0 0-.204.361 3.675 3.675 0 0 1-4.441 2.048 1.765 1.765 0 0 0-.408-.08 1.843 1.843 0 0 0-1.22 3.31 1.766 1.766 0 0 0 .361.204 3.675 3.675 0 0 1 2.048 4.441 1.766 1.766 0 0 0-.08.408 1.843 1.843 0 0 0 3.31 1.22 1.766 1.766 0 0 0 .204-.361 3.675 3.675 0 0 1 4.441-2.048 1.767 1.767 0 0 0 .408.08 1.843 1.843 0 0 0 1.22-3.31 1.768 1.768 0 0 0-.361-.204z" fill="#cbcbcb" style="isolation:isolate"/><path transform="translate(-194.5 -298)" d="M735.05 507.46a3.675 3.675 0 0 1-2.047-4.441 1.766 1.766 0 0 0 .08-.408 1.843 1.843 0 0 0-3.311-1.22 1.766 1.766 0 0 0-.204.361 3.675 3.675 0 0 1-4.441 2.048 1.765 1.765 0 0 0-.408-.08 1.843 1.843 0 0 0-1.22 3.31 1.766 1.766 0 0 0 .361.204 3.675 3.675 0 0 1 2.048 4.441 1.766 1.766 0 0 0-.08.408 1.843 1.843 0 0 0 3.31 1.22 1.766 1.766 0 0 0 .204-.361 3.675 3.675 0 0 1 4.441-2.048 1.767 1.767 0 0 0 .408.08 1.843 1.843 0 0 0 1.22-3.31 1.768 1.768 0 0 0-.361-.204zM368.05 412.46a3.675 3.675 0 0 1-2.047-4.441 1.766 1.766 0 0 0 .08-.408 1.843 1.843 0 0 0-3.311-1.22 1.766 1.766 0 0 0-.204.361 3.675 3.675 0 0 1-4.441 2.048 1.765 1.765 0 0 0-.408-.08 1.843 1.843 0 0 0-1.22 3.31 1.766 1.766 0 0 0 .361.204 3.675 3.675 0 0 1 2.048 4.441 1.766 1.766 0 0 0-.08.408 1.843 1.843 0 0 0 3.31 1.22 1.766 1.766 0 0 0 .204-.361 3.675 3.675 0 0 1 4.441-2.048 1.767 1.767 0 0 0 .408.08 1.843 1.843 0 0 0 1.22-3.31 1.768 1.768 0 0 0-.361-.204z" fill="#f1f1f1" style="isolation:isolate"/><circle cx="326.65" cy="50" r="6" fill="#f1f1f1" style="isolation:isolate"/><circle cx="646.65" cy="34" r="6" fill="#6c63ff"/><circle cx="180.65" cy="6" r="6" fill="#cbcbcb"/><circle cx="157.58" cy="241.62" r="43.067" fill="#2f2e41"/><path fill="#2f2e41" d="M137.95 275.42h13.084v23.442H137.95zM164.12 275.42h13.084v23.442H164.12z"/><ellipse cx="148.86" cy="299.14" rx="10.903" ry="4.089" fill="#2f2e41"/><ellipse cx="175.02" cy="298.59" rx="10.903" ry="4.089" fill="#2f2e41"/><ellipse transform="rotate(-45.022 -63.586 601.162)" cx="393.18" cy="515.5" rx="23.892" ry="7.501" fill="#2f2e41"/><ellipse transform="rotate(-44.978 -156.686 604.413)" cx="300.48" cy="518.5" rx="7.501" ry="23.892" fill="#2f2e41"/><circle cx="155.77" cy="235.52" r="14.719" fill="#fff"/><circle cx="155.77" cy="235.52" r="4.906" fill="#3f3d56"/><path d="M167.45 262.74a9.572 9.572 0 0 1-18.835 3.429l-.003-.019c-.942-5.202 3.08-7.043 8.282-7.984s9.615-.628 10.556 4.574z" fill="#fff"/><path d="M199.81 286.82a3.66 3.66 0 0 0-3.656 3.656v7.638a3.66 3.66 0 0 0 3.656 3.656h58.83a3.66 3.66 0 0 0 3.656-3.656v-7.638a3.66 3.66 0 0 0-3.656-3.656z" fill="#e5e5e5"/><path d="M233.64 281.74a1.586 1.586 0 0 0-2.166.58l-2.186 3.787-2.143-4.234a1.585 1.585 0 1 0-2.829 1.431l1.667 3.296h-.61v15.403h8.154V286.6h-.862l1.555-2.694a1.586 1.586 0 0 0-.58-2.166zM156.47 213.38a76.085 76.085 0 0 1-22.565-3.447 2.529 2.529 0 0 1-1.752-2.398v-17.53a2.503 2.503 0 0 1 2.5-2.5h44a2.503 2.503 0 0 1 2.5 2.5v17.52a2.506 2.506 0 0 1-1.779 2.4 79.185 79.185 0 0 1-22.904 3.455z" fill="#6c63ff"/><path d="M180.65 190v2.93l-23.81 8.35a2.016 2.016 0 0 1-1.37-.02l-22.82-8.57V190a2.006 2.006 0 0 1 2-2h44a2.006 2.006 0 0 1 2 2z" opacity=".2"/><path d="M156.18 197.89a2.502 2.502 0 0 1-.879-.159l-34.1-12.805a2.5 2.5 0 0 1 .069-4.706l32.085-10.977a2.525 2.525 0 0 1 1.6-.007l35.81 11.937a2.5 2.5 0 0 1 .036 4.731l-33.795 11.845a2.497 2.497 0 0 1-.827.14z" fill="#6c63ff"/><path fill="#3f3d56" d="M125.15 197h-1v-14.5h30.5v1h-29.5z"/><circle cx="124.65" cy="198" r="2" fill="#3f3d56"/><circle cx="406.58" cy="241.62" r="43.067" fill="#2f2e41"/><path fill="#2f2e41" d="M386.95 275.42h13.084v23.442H386.95zM413.12 275.42h13.084v23.442H413.12z"/><ellipse cx="397.86" cy="299.14" rx="10.903" ry="4.089" fill="#2f2e41"/><ellipse cx="424.02" cy="298.59" rx="10.903" ry="4.089" fill="#2f2e41"/><ellipse transform="rotate(-45.022 185.418 601.16)" cx="642.18" cy="515.5" rx="23.892" ry="7.501" fill="#2f2e41"/><ellipse transform="rotate(-55.225 174.371 593.424)" cx="556.48" cy="556.5" rx="23.892" ry="7.501" fill="#2f2e41"/><circle cx="404.77" cy="235.52" r="14.719" fill="#fff"/><circle cx="409.77" cy="230.52" r="4.906" fill="#3f3d56"/><path d="M422.42 262.74c1.444 5.201-3.816 10.185-11.748 11.132s-15.533-2.502-16.977-7.703l-.005-.019c-1.436-5.202 4.697-7.043 12.63-7.984s14.663-.628 16.099 4.574z" fill="#fff"/><path d="M391.51 216.28a76.085 76.085 0 0 1-22.222 5.22 2.529 2.529 0 0 1-2.52-1.57l-6.54-16.266a2.503 2.503 0 0 1 1.387-3.252l40.823-16.415a2.503 2.503 0 0 1 3.252 1.387l6.536 16.255a2.506 2.506 0 0 1-.755 2.89 79.185 79.185 0 0 1-19.961 11.75z" fill="#6c63ff"/><path d="m405.23 185.57 1.093 2.719-18.976 16.63a2.015 2.015 0 0 1-1.279.492l-24.37.562-1.003-2.496a2.006 2.006 0 0 1 1.11-2.601l40.822-16.415a2.006 2.006 0 0 1 2.602 1.11z" opacity=".2"/><path d="M385.46 202.02a2.502 2.502 0 0 1-.874.18l-36.416.842a2.5 2.5 0 0 1-1.692-4.392l25.674-22.154a2.525 2.525 0 0 1 1.482-.603l37.678-2.284a2.5 2.5 0 0 1 1.799 4.375l-26.936 23.597a2.497 2.497 0 0 1-.715.439z" fill="#6c63ff"/><path fill="#3f3d56" d="m356.35 212.77-.93.37-5.41-13.45 28.3-11.38.37.93-27.37 11z"/><circle cx="356.25" cy="213.88" r="2" fill="#3f3d56"/><path d="M570.54 139.87a76.085 76.085 0 0 1-17.333-14.853 2.529 2.529 0 0 1-.22-2.961l9.265-14.882a2.503 2.503 0 0 1 3.444-.801l37.352 23.256a2.503 2.503 0 0 1 .8 3.443l-9.26 14.873a2.506 2.506 0 0 1-2.778 1.097 79.185 79.185 0 0 1-21.27-9.172z" fill="#6c63ff"/><path d="m603.42 132.81-1.549 2.487-24.626-5.496a2.016 2.016 0 0 1-1.152-.741l-14.842-19.336 1.422-2.284a2.006 2.006 0 0 1 2.755-.64l37.352 23.256a2.006 2.006 0 0 1 .64 2.755z" opacity=".2"/><path d="M578.47 126.57a2.503 2.503 0 0 1-.662-.6l-22.181-28.893a2.5 2.5 0 0 1 2.546-3.958l33.04 7.64a2.525 2.525 0 0 1 1.36.84l24.09 29.06a2.5 2.5 0 0 1-2.469 4.036l-34.949-7.807a2.497 2.497 0 0 1-.776-.318z" fill="#6c63ff"/><path fill="#3f3d56" d="m552.61 109.42-.85-.53 7.66-12.312 25.89 16.122-.53.85-25.04-15.595z"/><circle cx="551.65" cy="110" r="2" fill="#3f3d56"/><circle cx="674.73" cy="192.62" r="43.067" fill="#2f2e41"/><path fill="#2f2e41" d="m693.424 221.784 11.164-6.823 12.224 20.003-11.164 6.823zM671.083 235.427l11.165-6.823 12.224 20.003-11.164 6.823z"/><ellipse transform="rotate(-31.431 275.376 735.489)" cx="902.15" cy="538.87" rx="10.903" ry="4.089" fill="#2f2e41"/><ellipse transform="rotate(-31.431 252.755 748.684)" cx="879.54" cy="552.06" rx="10.903" ry="4.089" fill="#2f2e41"/><ellipse transform="rotate(-44.978 370.955 552.405)" cx="828.12" cy="466.5" rx="7.501" ry="23.892" fill="#2f2e41"/><ellipse transform="rotate(-34.775 340.74 669.069)" cx="913.83" cy="507.5" rx="7.501" ry="23.892" fill="#2f2e41"/><circle cx="661.54" cy="180.52" r="14.719" fill="#fff"/><circle cx="656.54" cy="175.52" r="4.906" fill="#3f3d56"/><path d="M642.59 205.07c-2.791 4.573.928 10.76 8.306 13.818s15.623 1.83 18.414-2.742l.01-.016c2.784-4.576-2.623-8-10.005-11.054s-13.942-4.582-16.726-.007z" fill="#fff"/><path d="M660.28 138.55c3.846-15.487 20.821-24.601 37.915-20.356s27.834 20.24 23.989 35.727-16.604 15.537-33.698 11.292-32.051-11.176-28.205-26.663z" fill="#e6e6e6"/><path d="M810 304H1a1 1 0 0 1 0-2h809a1 1 0 0 1 0 2z" fill="#cbcbcb"/></svg>