<?xml version="1.0" encoding="UTF-8"?>
<svg data-name="Layer 1" viewBox="0 0 811 304" xmlns="http://www.w3.org/2000/svg">
<path transform="translate(-194.5 -298)" d="m217.77 566.34a17.584 17.584 0 0 0 16.98-2.991c5.9473-4.9921 7.8123-13.214 9.3291-20.828l4.4876-22.524-9.3952 6.4691c-6.7569 4.6522-13.666 9.4539-18.343 16.192s-6.7188 15.938-2.9613 23.229" fill="#e6e6e6" data-name="Path 438"/>
<path transform="translate(-194.5 -298)" d="m219.22 595.18c-1.1825-8.6152-2.3992-17.342-1.5677-26.049 0.73684-7.7334 3.0962-15.285 7.8996-21.48a35.733 35.733 0 0 1 9.1678-8.3078c0.91655-0.57839 1.7603 0.874 0.84769 1.4502a33.97 33.97 0 0 0-13.438 16.212c-2.9255 7.4405-3.3952 15.552-2.8913 23.456 0.30459 4.7799 0.95183 9.5284 1.6019 14.271a0.87009 0.87009 0 0 1-0.58678 1.033 0.8449 0.8449 0 0 1-1.033-0.58676z" fill="#f2f2f2" data-name="Path 439"/>
<path transform="translate(-194.5 -298)" d="m227.73 581.36a12.944 12.944 0 0 0 11.279 5.823c5.711-0.271 10.47-4.2552 14.754-8.039l12.673-11.19-8.3873-0.40143c-6.0318-0.28891-12.219-0.5599-17.964 1.3023s-11.044 6.337-12.094 12.284" fill="#e6e6e6" data-name="Path 442"/>
<path transform="translate(-194.5 -298)" d="m215.88 600.13c5.6931-10.073 12.296-21.268 24.095-24.847a26.888 26.888 0 0 1 10.134-1.0465c1.0761 0.093 0.80737 1.7514-0.26652 1.659a24.979 24.979 0 0 0-16.173 4.2788 42.038 42.038 0 0 0-11.116 11.996c-1.841 2.8034-3.4899 5.7256-5.1388 8.6438-0.52687 0.9328-2.0677 0.25924-1.5347-0.6842z" fill="#f2f2f2" data-name="Path 443"/>
<path transform="translate(-194.5 -298)" d="m738.53 553.18a24.215 24.215 0 0 0 23.383-4.1188c8.1898-6.8744 10.758-18.196 12.847-28.682l6.1797-31.017-12.938 8.9084c-9.3046 6.4064-18.818 13.019-25.26 22.298s-9.2522 21.947-4.0779 31.988" fill="#e6e6e6" data-name="Path 438"/>
<path transform="translate(-194.5 -298)" d="m740.52 592.89c-1.6284-11.864-3.3038-23.881-2.1588-35.872 1.0147-10.649 4.2637-21.049 10.878-29.579a49.206 49.206 0 0 1 12.625-11.44c1.2622-0.79648 2.4241 1.2035 1.1673 1.997a46.779 46.779 0 0 0-18.504 22.326c-4.0286 10.246-4.6755 21.416-3.9816 32.3 0.41944 6.5822 1.3108 13.121 2.2059 19.653a1.1982 1.1982 0 0 1-0.808 1.4225 1.1635 1.1635 0 0 1-1.4225-0.808z" fill="#f2f2f2" data-name="Path 439"/>
<path transform="translate(-194.5 -298)" d="m752.25 573.85a17.825 17.825 0 0 0 15.531 8.0186c7.8644-0.37318 14.418-5.8597 20.317-11.07l17.452-15.409-11.55-0.55281c-8.3062-0.39784-16.827-0.771-24.738 1.7934s-15.208 8.7264-16.654 16.915" fill="#e6e6e6" data-name="Path 442"/>
<path transform="translate(-194.5 -298)" d="m735.92 599.71c7.8397-13.871 16.932-29.288 33.181-34.216a37.026 37.026 0 0 1 13.955-1.441c1.4819 0.128 1.1118 2.4117-0.367 2.2845a34.398 34.398 0 0 0-22.272 5.8922c-6.2799 4.2745-11.17 10.218-15.308 16.519-2.5351 3.8605-4.8058 7.8844-7.0764 11.903-0.72555 1.2845-2.8474 0.35697-2.1134-0.94219z" fill="#f2f2f2" data-name="Path 443"/>
<path transform="translate(-194.5 -298)" d="m665.05 344.46a3.6746 3.6746 0 0 1-2.0475-4.441 1.7662 1.7662 0 0 0 0.0799-0.40753 1.8426 1.8426 0 0 0-3.3105-1.2212 1.766 1.766 0 0 0-0.2039 0.36178 3.6746 3.6746 0 0 1-4.441 2.0475 1.7654 1.7654 0 0 0-0.40754-0.0799 1.8426 1.8426 0 0 0-1.2212 3.3105 1.7655 1.7655 0 0 0 0.36181 0.20389 3.6746 3.6746 0 0 1 2.0475 4.441 1.7657 1.7657 0 0 0-0.07991 0.40753 1.8426 1.8426 0 0 0 3.3105 1.2212 1.7658 1.7658 0 0 0 0.2039-0.36179 3.6746 3.6746 0 0 1 4.441-2.0475 1.767 1.767 0 0 0 0.40755 0.07989 1.8426 1.8426 0 0 0 1.2212-3.3104 1.7675 1.7675 0 0 0-0.36179-0.20387z" fill="#cbcbcb" style="isolation:isolate"/>
<path transform="translate(-194.5 -298)" d="m735.05 507.46a3.6746 3.6746 0 0 1-2.0475-4.441 1.7662 1.7662 0 0 0 0.0799-0.40753 1.8426 1.8426 0 0 0-3.3105-1.2212 1.766 1.766 0 0 0-0.2039 0.36178 3.6746 3.6746 0 0 1-4.441 2.0475 1.7654 1.7654 0 0 0-0.40754-0.0799 1.8426 1.8426 0 0 0-1.2212 3.3105 1.7655 1.7655 0 0 0 0.36181 0.20389 3.6746 3.6746 0 0 1 2.0475 4.441 1.7657 1.7657 0 0 0-0.07991 0.40753 1.8426 1.8426 0 0 0 3.3105 1.2212 1.7658 1.7658 0 0 0 0.2039-0.36179 3.6746 3.6746 0 0 1 4.441-2.0475 1.767 1.767 0 0 0 0.40755 0.07989 1.8426 1.8426 0 0 0 1.2212-3.3104 1.7675 1.7675 0 0 0-0.36179-0.20387z" fill="#f1f1f1" style="isolation:isolate"/>
<path transform="translate(-194.5 -298)" d="m368.05 412.46a3.6746 3.6746 0 0 1-2.0475-4.441 1.7662 1.7662 0 0 0 0.0799-0.40753 1.8426 1.8426 0 0 0-3.3105-1.2212 1.766 1.766 0 0 0-0.2039 0.36178 3.6746 3.6746 0 0 1-4.441 2.0475 1.7654 1.7654 0 0 0-0.40754-0.0799 1.8426 1.8426 0 0 0-1.2212 3.3105 1.7655 1.7655 0 0 0 0.36181 0.20389 3.6746 3.6746 0 0 1 2.0475 4.441 1.7657 1.7657 0 0 0-0.07991 0.40753 1.8426 1.8426 0 0 0 3.3105 1.2212 1.7658 1.7658 0 0 0 0.2039-0.36179 3.6746 3.6746 0 0 1 4.441-2.0475 1.767 1.767 0 0 0 0.40755 0.07989 1.8426 1.8426 0 0 0 1.2212-3.3104 1.7675 1.7675 0 0 0-0.36179-0.20387z" fill="#f1f1f1" style="isolation:isolate"/>
<circle cx="326.65" cy="50" r="6" fill="#f1f1f1" style="isolation:isolate"/>
<circle cx="646.65" cy="34" r="6" fill="#6c63ff"/>
<circle cx="180.65" cy="6" r="6" fill="#cbcbcb"/>
<circle cx="157.58" cy="241.62" r="43.067" fill="#2f2e41"/>
<rect x="137.95" y="275.42" width="13.084" height="23.442" fill="#2f2e41"/>
<rect x="164.12" y="275.42" width="13.084" height="23.442" fill="#2f2e41"/>
<ellipse cx="148.86" cy="299.14" rx="10.903" ry="4.0887" fill="#2f2e41"/>
<ellipse cx="175.02" cy="298.59" rx="10.903" ry="4.0887" fill="#2f2e41"/>
<ellipse transform="translate(-443.89 131.26) rotate(-45.022)" cx="393.18" cy="515.5" rx="23.892" ry="7.5006" fill="#2f2e41"/>
<ellipse transform="translate(-473.07 66.113) rotate(-44.978)" cx="300.48" cy="518.5" rx="7.5006" ry="23.892" fill="#2f2e41"/>
<circle cx="155.77" cy="235.52" r="14.719" fill="#fff"/>
<circle cx="155.77" cy="235.52" r="4.9064" fill="#3f3d56"/>
<path transform="translate(-194.5 -298)" d="m361.95 560.74a9.5724 9.5724 0 0 1-18.835 3.4288l-0.00336-0.0185c-0.94177-5.2021 3.0804-7.043 8.2825-7.9847s9.6144-0.62768 10.556 4.5744z" fill="#fff"/>
<path transform="translate(-194.5 -298)" d="m394.31 584.82a3.6605 3.6605 0 0 0-3.6563 3.6563v7.6374a3.6605 3.6605 0 0 0 3.6563 3.6563h58.83a3.6605 3.6605 0 0 0 3.6563-3.6563v-7.6374a3.6605 3.6605 0 0 0-3.6563-3.6563z" fill="#e5e5e5"/>
<path transform="translate(-194.5 -298)" d="m428.14 579.74a1.5858 1.5858 0 0 0-2.166 0.58036l-2.1862 3.7867-2.1424-4.2342a1.5855 1.5855 0 1 0-2.8294 1.4316l1.6672 3.2952h-0.611v15.403h8.1545v-15.403h-0.8616l1.5553-2.6938a1.5858 1.5858 0 0 0-0.58045-2.166z" fill="#6c63ff"/>
<path transform="translate(-194.5 -298)" d="m350.97 511.38a76.085 76.085 0 0 1-22.565-3.4473 2.5287 2.5287 0 0 1-1.7522-2.3975v-17.53a2.5029 2.5029 0 0 1 2.5-2.5h44a2.5029 2.5029 0 0 1 2.5 2.5v17.52a2.5061 2.5061 0 0 1-1.7788 2.3994 79.185 79.185 0 0 1-22.904 3.4556z" fill="#6c63ff"/>
<path transform="translate(-194.5 -298)" d="m375.15 488v2.93l-23.81 8.35a2.0156 2.0156 0 0 1-1.3701-0.02l-22.82-8.57v-2.69a2.0058 2.0058 0 0 1 2-2h44a2.0058 2.0058 0 0 1 2 2z" opacity=".2"/>
<path transform="translate(-194.5 -298)" d="m350.68 495.89a2.5025 2.5025 0 0 1-0.87866-0.15869l-34.101-12.805a2.5002 2.5002 0 0 1 0.06958-4.706l32.085-10.977a2.5252 2.5252 0 0 1 1.5996-0.00684l35.81 11.937a2.5 2.5 0 0 1 0.03638 4.731l-33.795 11.845a2.4971 2.4971 0 0 1-0.82666 0.14011z" fill="#6c63ff"/>
<polygon points="125.15 197 124.15 197 124.15 182.5 154.65 182.5 154.65 183.5 125.15 183.5" fill="#3f3d56"/>
<circle cx="124.65" cy="198" r="2" fill="#3f3d56"/>
<circle cx="406.58" cy="241.62" r="43.067" fill="#2f2e41"/>
<rect x="386.95" y="275.42" width="13.084" height="23.442" fill="#2f2e41"/>
<rect x="413.12" y="275.42" width="13.084" height="23.442" fill="#2f2e41"/>
<ellipse cx="397.86" cy="299.14" rx="10.903" ry="4.0887" fill="#2f2e41"/>
<ellipse cx="424.02" cy="298.59" rx="10.903" ry="4.0887" fill="#2f2e41"/>
<ellipse transform="translate(-370.89 307.4) rotate(-45.022)" cx="642.18" cy="515.5" rx="23.892" ry="7.5006" fill="#2f2e41"/>
<ellipse transform="translate(-412.52 398.19) rotate(-55.225)" cx="556.48" cy="556.5" rx="23.892" ry="7.5006" fill="#2f2e41"/>
<circle cx="404.77" cy="235.52" r="14.719" fill="#fff"/>
<circle cx="409.77" cy="230.52" r="4.9064" fill="#3f3d56"/>
<path transform="translate(-194.5 -298)" d="m616.92 560.74c1.4439 5.2012-3.8156 10.185-11.748 11.132s-15.533-2.502-16.977-7.7032l-0.00512-0.0185c-1.4362-5.2021 4.6976-7.043 12.631-7.9847s14.662-0.62768 16.098 4.5744z" fill="#fff"/>
<path transform="translate(-194.5 -298)" d="m586.01 514.28a76.085 76.085 0 0 1-22.222 5.2198 2.5287 2.5287 0 0 1-2.5201-1.5707l-6.5399-16.265a2.5029 2.5029 0 0 1 1.3868-3.2522l40.823-16.415a2.5029 2.5029 0 0 1 3.2522 1.3868l6.5361 16.255a2.5061 2.5061 0 0 1-0.75525 2.8898 79.185 79.185 0 0 1-19.961 11.751z" fill="#6c63ff"/>
<path transform="translate(-194.5 -298)" d="m599.73 483.57 1.0931 2.7185-18.976 16.63a2.0155 2.0155 0 0 1-1.2787 0.49257l-24.37 0.562-1.0036-2.4958a2.0058 2.0058 0 0 1 1.1095-2.6017l40.823-16.415a2.0058 2.0058 0 0 1 2.6018 1.1095z" opacity=".2"/>
<path transform="translate(-194.5 -298)" d="m579.96 500.02a2.5024 2.5024 0 0 1-0.87443 0.18056l-36.416 0.84167a2.5002 2.5002 0 0 1-1.6911-4.3923l25.674-22.154a2.5252 2.5252 0 0 1 1.4816-0.6031l37.678-2.2843a2.5 2.5 0 0 1 1.7987 4.3758l-26.936 23.597a2.497 2.497 0 0 1-0.71468 0.43839z" fill="#6c63ff"/>
<polygon points="356.35 212.77 355.42 213.14 350.01 199.69 378.31 188.31 378.68 189.24 351.31 200.24" fill="#3f3d56"/>
<circle cx="356.25" cy="213.88" r="2" fill="#3f3d56"/>
<path transform="translate(-194.5 -298)" d="m765.04 437.87a76.085 76.085 0 0 1-17.333-14.853 2.5287 2.5287 0 0 1-0.22029-2.9613l9.2655-14.882a2.5029 2.5029 0 0 1 3.4436-0.80091l37.352 23.256a2.503 2.503 0 0 1 0.80091 3.4436l-9.2601 14.873a2.5061 2.5061 0 0 1-2.7782 1.0967 79.185 79.185 0 0 1-21.27-9.1723z" fill="#6c63ff"/>
<path transform="translate(-194.5 -298)" d="m797.92 430.81-1.5486 2.4873-24.626-5.4962a2.0156 2.0156 0 0 1-1.1525-0.74116l-14.842-19.336 1.4218-2.2836a2.0058 2.0058 0 0 1 2.7549-0.64072l37.352 23.256a2.0058 2.0058 0 0 1 0.64072 2.7549z" opacity=".2"/>
<path transform="translate(-194.5 -298)" d="m772.97 424.57a2.5026 2.5026 0 0 1-0.662-0.59912l-22.181-28.894a2.5002 2.5002 0 0 1 2.5464-3.9582l33.039 7.6405a2.5252 2.5252 0 0 1 1.3615 0.83966l24.09 29.061a2.5 2.5 0 0 1-2.4696 4.0354l-34.949-7.8069a2.4973 2.4973 0 0 1-0.77582-0.31797z" fill="#6c63ff"/>
<polygon points="552.61 109.42 551.76 108.89 559.42 96.578 585.31 112.7 584.78 113.55 559.74 97.955" fill="#3f3d56"/>
<circle cx="551.65" cy="110" r="2" fill="#3f3d56"/>
<circle cx="674.73" cy="192.62" r="43.067" fill="#2f2e41"/>
<rect transform="translate(-336.98 248.36) rotate(-31.431)" x="893.07" y="514.65" width="13.084" height="23.442" fill="#2f2e41"/>
<rect transform="translate(-347.38 238.72) rotate(-31.431)" x="870.74" y="528.29" width="13.084" height="23.442" fill="#2f2e41"/>
<ellipse transform="translate(-343.13 251.52) rotate(-31.431)" cx="902.15" cy="538.87" rx="10.903" ry="4.0887" fill="#2f2e41"/>
<ellipse transform="translate(-353.33 241.66) rotate(-31.431)" cx="879.54" cy="552.06" rx="10.903" ry="4.0887" fill="#2f2e41"/>
<ellipse transform="translate(-281.91 423.85) rotate(-44.978)" cx="828.12" cy="466.5" rx="7.5006" ry="23.892" fill="#2f2e41"/>
<ellipse transform="translate(-320.75 313.84) rotate(-34.775)" cx="913.83" cy="507.5" rx="7.5006" ry="23.892" fill="#2f2e41"/>
<circle cx="661.54" cy="180.52" r="14.719" fill="#fff"/>
<circle cx="656.54" cy="175.52" r="4.9064" fill="#3f3d56"/>
<path transform="translate(-194.5 -298)" d="m837.09 503.07c-2.7911 4.573 0.92772 10.76 8.3063 13.818s15.623 1.8309 18.414-2.7421l0.00991-0.01627c2.7839-4.576-2.6232-7.9996-10.005-11.054s-13.942-4.5821-16.726-0.00616z" fill="#fff"/>
<path transform="translate(-194.5 -298)" d="m854.78 436.55c3.8456-15.487 20.821-24.601 37.915-20.356s27.834 20.24 23.989 35.727-16.604 15.537-33.698 11.292-32.051-11.176-28.205-26.663z" fill="#e6e6e6"/>
<path transform="translate(-194.5 -298)" d="m1004.5 602h-809a1 1 0 0 1 0-2h809a1 1 0 0 1 0 2z" fill="#cbcbcb"/>
</svg>
