<?xml version="1.0" encoding="UTF-8"?>
<svg data-name="Layer 1" viewBox="0 0 792.41 763.68" xmlns="http://www.w3.org/2000/svg">
<circle cx="180.18" cy="49.432" r="49.432" fill="#ff6584"/>
<path transform="translate(-203.8 -68.527)" d="m439.61 433.15a81.057 81.057 0 0 1-52.681-19.453c-4.8974-4.1922-10.116-11.48-15.509-21.661a49.536 49.536 0 0 1-1.5711-42.765 56.842 56.842 0 0 1-9.3868 7.6994l-1.7161 1.1418-0.09914-2.0578c-0.06506-1.3384-0.098-2.6724-0.098-3.9646 0-7.6157 5.7601-15.344 3.1036-22.383-11.196-29.669-46.709-59.154 4.7594-105.07 4.7611-4.2476-1.599-12.74-1.599-19.167 0-62.982 68.432-157.46 114.24-114.22 26.74 25.239 82.452 43.168 108.46 78.274l0.34446 1.0402-1.0151 0.41065a61.223 61.223 0 0 1-16.267 4.3265 77.569 77.569 0 0 0 18.138 1.5195l0.94355-0.03295 0.22983 0.91707a114.74 114.74 0 0 1 3.4058 27.766l-0.00423 1.0117a50.592 50.592 0 0 0 16.713 37.723 81.244 81.244 0 0 1 26.506 59.951c0 13.352-9.0747 30.879-16.688 43.231a24.445 24.445 0 0 1-17.945 11.494 23.873 23.873 0 0 1-19.267-6.2241 78.949 78.949 0 0 0 13.923 19.711l1.0388 1.0703-1.2897 0.75146a80.997 80.997 0 0 1-40.832 11.027l-0.84018-0.00226c-21.782 0-42.457 8.4384-56.724 23.152a81.673 81.673 0 0 1-58.28 24.785z" fill="#e6e6e6"/>
<path transform="translate(-203.8 -68.527)" d="m411.02 560.13a1.4577 1.4577 0 0 1-1.4414-1.2523c-0.06192-0.43516-6.1284-44.187-0.68-102.34 5.0316-53.701 21.19-131.05 69.594-194.58a1.4578 1.4578 0 1 1 2.3191 1.7672c-47.986 62.977-64.014 139.76-69.011 193.08-5.4167 57.81 0.6022 101.22 0.66365 101.65a1.4591 1.4591 0 0 1-1.4451 1.6633z" fill="#ccc"/>
<path transform="translate(-203.8 -68.527)" d="m455.22 349.96a1.4578 1.4578 0 0 1-0.85821-2.637 200.92 200.92 0 0 1 44.356-22.58c24.472-8.9594 61.686-17.082 99.996-4.8887a1.4576 1.4576 0 1 1-0.88408 2.778c-37.526-11.942-74.065-3.9544-98.11 4.8489a197.62 197.62 0 0 0-43.645 22.2 1.452 1.452 0 0 1-0.85584 0.27855z" fill="#ccc"/>
<path transform="translate(-203.8 -68.527)" d="m387.5 177.79a1.4578 1.4578 0 0 1 2.5684-1.0459 200.92 200.92 0 0 1 25.715 42.615c10.698 23.763 21.48 60.295 12.077 99.384a1.4576 1.4576 0 1 1-2.8344-0.68172c9.2089-38.288-1.3896-74.157-11.902-97.506a197.62 197.62 0 0 0-25.286-41.933 1.452 1.452 0 0 1-0.33946-0.83356z" fill="#ccc"/>
<path transform="translate(-203.8 -68.527)" d="m743.15 648.7c-100.27 0-177.23-5.2773-230.65-26.438-130.11-51.54-174.22-72.943-174.65-73.153l0.87793-1.7969c0.42969 0.21 44.495 21.589 174.51 73.091 77.116 30.55 204 27.825 379.62 24.053 32.955-0.707 67.032-1.4394 103.32-2.0225l0.03125 2c-36.285 0.583-70.36 1.3145-103.31 2.0225-54.631 1.1729-104.56 2.2451-149.75 2.2451z" fill="#cacaca"/>
<path transform="translate(-203.8 -68.527)" d="m320 779.92-1.4141-1.4141c48.58-48.58 67.301-67.153 71.267-71.083l-143.15-103.4 1.1709-1.6211 145.06 104.78-0.84033 0.83007c-0.16064 0.15918-16.743 16.55-72.098 71.905z" fill="#cacaca"/>
<path transform="translate(-203.8 -68.527)" d="m392.08 832.21-1.3642-1.4629c4.4814-4.1826 109.89-102.34 130.43-102.34h0.06494l472.1 4.8076-0.01953 2-472.1-4.8076h-0.05811c-19.737 0-127.96 100.78-129.05 101.8z" fill="#cacaca"/>
<rect x="658.24" y="610.69" width="121.25" height="2" fill="#cacaca"/>
<rect x="431.24" y="610.69" width="121.25" height="2" fill="#cacaca"/>
<path transform="translate(-203.8 -68.527)" d="m629.3 518.06h-70v-17.684h26a6 6 0 0 0 6-6v-19.158a6 6 0 0 0-6-6h-26v-6a8 8 0 0 0-16 0v6h-96.091a5.9997 5.9997 0 0 0-3.4675 1.1034l-13.527 9.5789a6 6 0 0 0 0 9.7932l13.527 9.579a6.0002 6.0002 0 0 0 3.4675 1.1034h96.091v17.684h-70a6 6 0 0 0-6 6v19.158a6 6 0 0 0 6 6h70v66a8 8 0 0 0 16 0v-66h70a6 6 0 0 0 6-6v-19.158a6 6 0 0 0-6-6z" fill="#3f3d56"/>
<path transform="translate(-203.8 -68.527)" d="m511.3 485.71h-50a3.5 3.5 0 0 1 0-7h50a3.5 3.5 0 0 1 0 7z" fill="#6c63ff"/>
<path transform="translate(-203.8 -68.527)" d="m573.3 536.71h-50a3.5 3.5 0 1 1 0-7h50a3.5 3.5 0 0 1 0 7z" fill="#fff"/>
<path transform="translate(-203.8 -68.527)" d="m333.3 618.06v-17.684h26a6 6 0 0 0 6-6v-19.158a6 6 0 0 0-6-6h-26v-5.7259a8.1821 8.1821 0 0 0-7.4675-8.2568 8.0007 8.0007 0 0 0-8.5325 7.9827v6l-107.61 50.349a3.5519 3.5519 0 0 0-1.874 2.111c-0.84759 2.5822-2.6281 8.0922-3.8391 12.438a4.6684 4.6684 0 0 0 4.6496 5.9072c6.9348-0.213 11.498-0.536 14.665-0.62427a4.6396 4.6396 0 0 0 1.7698-0.40486l92.238-38.618v48.842 65.726a8.1821 8.1821 0 0 0 7.4675 8.2568 8.0007 8.0007 0 0 0 8.5325-7.9827v-97.158z" fill="#3f3d56"/>
<path transform="translate(-203.8 -68.527)" d="m291.54 600.68-45.625 20.453a3.5 3.5 0 0 1-2.8634-6.3876l45.625-20.453a3.5 3.5 0 0 1 2.8634 6.3876z" fill="#fff"/>
<path transform="translate(-203.8 -68.527)" d="m902.99 437.75-20.851 2.1156a61.775 61.775 0 0 0 5.4177 31.258l-6.2566 58.271 0.09288-0.00134a6.7656 6.7656 0 1 0 11.157-0.81256l13.905-51.994z" fill="#a0616a"/>
<polygon points="635.05 625.01 626.2 623.48 625.33 596.74 640.94 590.84" fill="#a0616a"/>
<path transform="translate(-203.8 -68.527)" d="m837.58 702.83-27.245-4.6937 0.05934-0.34456a10.761 10.761 0 0 1 12.431-8.778l6.6e-4 1.1e-4 5.627-2.9184 8.6351 5.3755 2.3783 0.40973z" fill="#2f2e41"/>
<polygon points="723.94 606.5 716.27 611.18 694.54 583.82 705.87 576.9" fill="#a0616a"/>
<path transform="translate(-203.8 -68.527)" d="m932.9 682.86-23.595 14.409-0.18224-0.29839a10.761 10.761 0 0 1 3.5747-14.792l5.7e-4 -3.5e-4 2.3128-5.9018 10.038-1.641 2.0597-1.2578z" fill="#2f2e41"/>
<path transform="translate(-203.8 -68.527)" d="m841.89 530.9-5.3157 20.201s-1.4516 8.3718-0.69968 9.1238a10.093 10.093 0 0 1 1.8413 6.2226c-0.33748 2.0486-3.7774 1.2137-2.0574 4.2629s-3.5958 49.449-3.5958 49.449l-4.7618 57.055 17 2c2.4408-1.4292 2.7989-3.0543 1.3579-4.8488 0 0 3.4871-4.0217 1.5646-5.5865s1.5507-2.2188 1.7397-6.2118l10.973-39.181 3.6315-8.7585-0.94943-4.5689 2.7589-5.2457 1.3264-13.76 3.5974 36.161 33.598 38.582 16.542-8.2711 0.97065-2.1144a3.9275 3.9275 0 0 0-1.4988-4.9758l-5.6122-5.2201c0.48071-2.1506-7.154-7.5417-7.154-7.5417l-12.783-24.062 7.9367-67.397s12-16-3.8974-30.478c-6.5128-5.9312-56.514 15.163-56.514 15.163z" fill="#2f2e41"/>
<path transform="translate(-203.8 -68.527)" d="m893.05 504.36c2.8182-4.1886 9.5856 1.8268 7.3298-5.6924s-7.9633-8.917-2.8538-16.113l7.3653-35.87a33.002 33.002 0 0 0-8.1067-23.415l-10.602-12.134-1.5931-4.3035-18.046-0.75188-1.5039 5.2635c-5.3913 6.7127-14.215 15.332-13.951 28.011 0.50806 24.397-3.2966 56.861-12.668 99.094 0 0 20.958-16.365 27.548-9.2749s26.442 5.1627 31.403 0.22222a29.379 29.379 0 0 0 6.7673-12.031s-13.908-8.8165-11.089-13.005z" fill="#6c63ff"/>
<path transform="translate(-203.8 -68.527)" d="m904.44 532.81-41.144-11.6-27 13c12.089-22.494 19.445-59.947 17.121-91.764a36.684 36.684 0 0 1 3.8356-19.595c3.7118-7.144 9.517-12.192 18.043-11.641l11-1 7 4c10.129 10.611 14.113 26.442 12.537 41.028-1.7396 16.098-3.905 35.653-4.3416 37.4-0.25627 1.0262 0.55366 2.8278 1.411 4.7352 1.4473 3.2184 3.2482 7.2241 0.746 9.7262a7.2815 7.2815 0 0 0-2.454 5.3369 6.527 6.527 0 0 0 2.4338 4.6397c3.1972 2.7617 0.97221 14.878 0.876 15.392z" fill="#2f2e41"/>
<path transform="translate(-203.8 -68.527)" d="m883.45 453.14-20.672-3.4517a61.775 61.775 0 0 0-3.0077 31.581l-21.386 54.565 0.09 0.02318a6.7655 6.7655 0 1 0 10.977 2.1551l27.11-46.494z" fill="#a0616a"/>
<path transform="translate(-203.8 -68.527)" d="m859.3 464.21 24-5 3.92-17.418a13.535 13.535 0 0 0-27.069 0c-2.4188 9.6932-1.997 12.502-0.85067 22.418z" fill="#6c63ff"/>
<circle cx="671.01" cy="316.5" r="18.798" fill="#a0616a"/>
<path transform="translate(-203.8 -68.527)" d="m896.62 370.74c-1.463-2.6179-7.2817 0.73123-9.0856-1.6645a19.624 19.624 0 0 0-5.3585-5.2742 11.705 11.705 0 0 0-11.54-0.12841 23.206 23.206 0 0 1-4.1459 2.3558c-1.5185 0.485-3.5008 0.11846-4.1584-1.3336q0.69563 1.9032 1.3912 3.8065a5.4149 5.4149 0 0 1-6.9745-2.2247q-0.12246 1.9707-0.24479 3.9415a1.5707 1.5707 0 0 0-1.726-1.1014 2.8303 2.8303 0 0 0-1.9246 2.0134c-1.1873 3.492 1.653 7.5678 5.2946 8.153 2.2524 0.36192 4.5176-0.361 6.7782-0.66752s4.8774-0.05058 6.3054 1.7285c1.4024 1.7472 1.1308 4.2368 1.212 6.4758s1.0598 4.925 3.2802 5.2237c1.5236 0.205 2.9796-0.85767 4.5143-0.76662 2.1905 0.13 3.5951 2.6477 3.3592 4.8293s-1.6077 4.0493-2.9312 5.7996q3.2819 0.25968 6.5638 0.51929l-0.84816 0.23516c5.3526-0.262 9.4834-5.4566 10.123-10.777s2.7306-16.465 0.11637-21.143z" fill="#2f2e41"/>
</svg>
