<?xml version="1.0" encoding="UTF-8"?>
<svg data-name="Layer 1" viewBox="0 0 832.03 646" xmlns="http://www.w3.org/2000/svg">
<path transform="translate(-183.99 -127)" d="m710.36 771.36s-12.753-31.391 25.505-54.934z" fill="#e6e6e6" data-name="Path 482"/>
<path transform="translate(-183.99 -127)" d="m694.68 770.79s-3.89-22.374-34-22.182z" fill="#e6e6e6" data-name="Path 483"/>
<path transform="translate(-183.99 -127)" d="m982.32 771.36s-16.848-41.472 33.696-72.575z" fill="#e6e6e6" data-name="Path 482"/>
<path transform="translate(-183.99 -127)" d="m961.6 770.6s-5.1392-29.559-44.919-29.305" fill="#e6e6e6" data-name="Path 483"/>
<polygon points="483.22 179.57 466.58 170.73 467.82 170.07 484.46 178.91" fill="#cbcbcb"/>
<polygon points="468.7 179.57 467.46 178.91 484.1 170.07 485.34 170.73" fill="#cbcbcb"/>
<rect transform="translate(-108.89 475.96) rotate(-62.868)" x="529.92" y="237.41" width="1.7608" height="5.2815" fill="#cbcbcb"/>
<path transform="translate(-183.99 -127)" d="m626.3 289.98-9.3556-4.794 0.80288-1.5671 9.3556 4.794zm-18.711-9.5881-9.3558-4.7945 0.80288-1.5671 9.3558 4.7945zm-18.711-9.5885-9.3556-4.794 0.80287-1.5671 9.3556 4.794zm-18.711-9.5881-9.3558-4.794 0.80288-1.5671 9.3558 4.794zm-18.711-9.5881-9.3556-4.794 0.80287-1.5671 9.3556 4.794z" fill="#cbcbcb"/>
<rect transform="translate(-99.431 601.73) rotate(-62.868)" x="637.53" y="292.55" width="1.7608" height="5.2815" fill="#cbcbcb"/>
<path transform="translate(-183.99 -127)" d="M281.557,355.92045q0,.82486-.05345,1.63595a24.78151,24.78151,0,0,1-2.322,8.9969c-.01036.02414-.02248.04655-.03275.069-.06212.131-.12592.262-.19141.39133a24.48771,24.48771,0,0,1-1.31874,2.32723,24.90345,24.90345,0,0,1-20.43827,11.50168l.24655,14.17714,3.215-1.69285.57407,1.09122-3.76492,1.98246.46026,26.33045.00514.35168-2.48581.55335.00513-.35339.78265-42.43833a24.854,24.854,0,0,1-17.58352-7.65056c-.15682-.162-.312-.32925-.46371-.49475l-.01726-.019a24.95626,24.95626,0,0,1-4.54066-7.02651c.02416.02757.05.05344.07416.081a24.93445,24.93445,0,0,1,11.82226-32.12957c.08619-.04309.17415-.08447.26035-.12756a24.95344,24.95344,0,0,1,32.32778,9.814c.15176.25514.29831.51545.43963.77747A24.79836,24.79836,0,0,1,281.557,355.92045Z" fill="#e5e5e5"/>
<circle cx="94.215" cy="206.96" r="32.674" fill="#e5e5e5"/>
<path transform="translate(-183.99 -127)" d="m254.08 312.14a32.677 32.677 0 0 0 54.445 34.581 32.677 32.677 0 1 1-54.445-34.581z" opacity=".2" style="isolation:isolate"/>
<polygon points="95.983 297.99 92.646 297.05 92.653 296.69 93.653 242.34 93.703 239.63 93.704 239.55 93.879 230.06 94.132 216.29 94.132 216.29 94.304 206.96 94.396 206.96 94.572 217.07 94.801 230.22 94.965 239.56 94.965 239.63 94.972 240.01 94.972 240.01 95.289 258.21 95.322 260.02 95.977 297.62" fill="#3f3d56"/>
<rect transform="translate(-331.03 48.327) rotate(-27.766)" x="278.11" y="384.32" width="6.104" height="1.6158" fill="#3f3d56"/>
<path transform="translate(-183.99 -127)" d="m701.76 228.22a832.27 832.27 0 0 0-123.75 1.9022c-19.832 1.7926-39.979 3.7288-59.444 8.0548-15.679 3.4844-33.875 9.3735-43.644 23.09a22.291 22.291 0 0 0-3.4803 19.514c2.3293 7.8194 8.1236 14.328 14.294 19.426 14.203 11.733 31.825 18.561 47.565 27.882 28.74 17.02 55.043 39.96 71.926 69.101 7.4291 12.823 14.496 29.874 6.2236 44.004-8.1042 13.843-26.196 18.612-40.95 20.861-18.493 2.8189-37.541 2.0543-56.111 0.47581a584.65 584.65 0 0 1-60.651-8.8834c-39.275-7.5414-78.192-17.135-118.01-21.497a341.78 341.78 0 0 0-60.17-1.7399c-18.124 1.2225-36.404 4.0893-53.43 10.625-13.12 5.036-27.106 12.655-34.193 25.362-6.8316 12.249-4.1671 26.374 3.2717 37.675 8.9504 13.598 22.907 22.915 37.418 29.726 16.522 7.7542 34.193 12.78 51.887 17.055 8.9739 2.168 17.996 4.1277 27.02 6.0775 1.8824 0.40675 2.6867-2.4846 0.79752-2.8928-18.196-3.9319-36.445-7.8767-54.189-13.568-16.42-5.2671-33.225-12.014-46.672-23.074-10.879-8.9475-21.222-22.017-20.58-36.876 0.64729-14.979 13.215-25.438 25.534-31.876 15.395-8.0452 32.885-11.964 50.024-14.012a303.94 303.94 0 0 1 59.09-0.80365c39.727 3.0228 78.566 12.072 117.52 19.966 37.84 7.6682 76.86 14.769 115.64 12.802 15.37-0.77956 31.839-2.982 45.41-10.74 6.2136-3.5521 11.816-8.5615 14.974-15.081a33.774 33.774 0 0 0 2.5806-19.845c-2.2006-14.77-10.973-28.466-19.726-40.23a194.42 194.42 0 0 0-33.14-34.328 261.41 261.41 0 0 0-43.849-28.565c-8.2382-4.3374-16.593-8.5082-24.445-13.532-7.5277-4.8169-14.953-10.613-19.55-18.432-3.9759-6.7633-4.7052-14.482-0.564-21.342 4.1885-6.9378 11.405-11.777 18.522-15.313 17.146-8.5193 37.08-10.8 55.839-13.136a825.91 825.91 0 0 1 121.45-6.0555q14.794 0.348 29.569 1.2249c1.9286 0.11345 1.922-2.8869 0-3z"/>
<path transform="translate(-183.99 -127)" d="m675.59 132.05 6.2294-4.9823c-4.8394-0.53392-6.8278 2.1054-7.6416 4.1944-3.7807-1.5699-7.8965 0.48753-7.8965 0.48753l12.464 4.5248a9.4317 9.4317 0 0 0-3.1554-4.2244z" fill="#3f3d56"/>
<path transform="translate(-183.99 -127)" d="m645.36 147.83 6.2294-4.9824c-4.8394-0.53391-6.8278 2.1054-7.6416 4.1944-3.7807-1.5699-7.8965 0.48754-7.8965 0.48754l12.464 4.5248a9.4316 9.4316 0 0 0-3.1554-4.2244z" fill="#3f3d56"/>
<path transform="translate(-183.99 -127)" d="m675.59 172.8 6.2294-4.9823c-4.8394-0.53392-6.8278 2.1054-7.6416 4.1944-3.7807-1.5699-7.8965 0.48753-7.8965 0.48753l12.464 4.5248a9.4317 9.4317 0 0 0-3.1554-4.2244z" fill="#3f3d56"/>
<g data-name="Group 27">
<circle cx="398.22" cy="34.413" r="18.768" fill="#ff6583" data-name="Ellipse 7"/>
<path transform="translate(-183.99 -127)" d="m641.06 219.25h-92.073a1.8848 1.8848 0 0 1-0.34417-0.02729l43.547-75.424a3.0483 3.0483 0 0 1 5.307 0l29.224 50.614 1.3996 2.4216z" fill="#6c63ff" data-name="Path 63"/>
<path transform="translate(-183.99 -127)" d="m692.32 219.25h-79.634l15.431-22.414 1.11-1.6152 20.108-29.21a4.0685 4.0685 0 0 1 6.0437-0.36091 3.6381 3.6381 0 0 1 0.28961 0.36091z" fill="#6c63ff" data-name="Path 65"/>
</g>
<path transform="translate(-183.99 -127)" d="m560.96 392.23c8.7272 4.362 14.04 10.123 14.04 16.442 0 13.612-24.631 24.647-55.015 24.647-13.21 0-25.329-2.0876-34.813-5.5641 10.073 5.0347 24.695 8.2049 40.975 8.2049 30.384 0 55.015-11.035 55.015-24.647 0-7.6939-7.8727-14.563-20.202-19.083z" fill="#f1f1f1"/>
<path transform="translate(-183.99 -127)" d="m580.37 401.58c9.8476 4.922 15.843 11.423 15.843 18.553 0 15.36-27.793 27.811-62.078 27.811-14.906 0-28.581-2.3556-39.282-6.2785 11.366 5.6811 27.865 9.2582 46.235 9.2582 34.284 0 62.078-12.451 62.078-27.811-3e-5 -8.6817-8.8835-16.432-22.796-21.532z" fill="#f1f1f1"/>
<path transform="translate(-183.99 -127)" d="m553.53 396.35c6.1485 3.0732 9.8918 7.1319 9.8918 11.584 0 9.59-17.353 17.364-38.759 17.364a72.801 72.801 0 0 1-24.527-3.9201c7.0966 3.5471 17.398 5.7805 28.868 5.7805 21.406 0 38.76-7.7742 38.76-17.364 0-5.4206-5.5466-10.26-14.233-13.444z" fill="#f1f1f1"/>
<path transform="translate(-183.99 -127)" d="m467.14 394.59s1.3511 19.749 40.082 19.749 50.294-19.749 50.294-19.749z" fill="#3f3d56"/>
<path transform="translate(-183.99 -127)" d="m522.11 342.78a27.187 27.187 0 0 0-19.584-5.357 27.282 27.282 0 0 1-3.3036 53.629 27.288 27.288 0 0 0 22.888-48.272z" fill="#3f3d56"/>
<rect x="322.8" y="206.86" width="2.6407" height="62.858" fill="#3f3d56"/>
<path transform="translate(-183.99 -127)" d="m682.97 287.15-0.01419-0.02423-0.03567-1.5354 8.2729-12.011-8.263 10.862-0.02965 0.32455-0.28281-12.277 7.1455-12.453-7.1657 10.296 0.07478-25.435-4.3e-4 -0.08467-0.00215 0.08328-0.4745 20.046-6.5124-8.1427 6.4913 9.8696-0.14227 10.982-5.9928-10.718 5.9708 12.332-0.07951 6.1063-0.21877 16.917-0.0159 1.2641q0.82779 0.00628 1.6388-0.02756l-0.37479-16.249z" fill="#cbcbcb"/>
<path transform="translate(-183.99 -127)" d="m643.36 292.43-0.01419-0.02423-0.03567-1.5354 8.2729-12.011-8.263 10.862-0.02966 0.32455-0.28281-12.277 7.1455-12.453-7.1657 10.296 0.07478-25.435-4.3e-4 -0.08467-0.00215 0.08327-0.4745 20.046-6.5124-8.1427 6.4913 9.8697-0.14227 10.982-5.9928-10.718 5.9708 12.332-0.07951 6.1063-0.21877 16.917-0.0159 1.2641q0.82781 0.00628 1.6388-0.02756l-0.37479-16.249z" fill="#cbcbcb"/>
<path transform="translate(-183.99 -127)" d="m662.72 275.71-0.01419-0.02423-0.03567-1.5354 8.2729-12.011-8.263 10.862-0.02965 0.32456-0.28281-12.277 7.1455-12.453-7.1657 10.296 0.07478-25.435-4.3e-4 -0.08467-0.00215 0.08327-0.4745 20.046-6.5124-8.1427 6.4913 9.8697-0.14227 10.982-5.9928-10.718 5.9708 12.332-0.07951 6.1063-0.21877 16.917-0.0159 1.2641q0.82781 0.00628 1.6388-0.02757l-0.37479-16.249z" fill="#cbcbcb"/>
<circle cx="151.59" cy="430.44" r="10.563" fill="#6c63ff"/>
<polygon points="715.4 625.42 705.62 629.05 686.95 593.06 701.38 587.7" fill="#ffb7b7"/>
<path transform="translate(-183.99 -127)" d="m905.4 760.97-31.532 11.715-0.14819-0.39882a13.093 13.093 0 0 1 7.7125-16.833l7.8e-4 -2.9e-4 19.258-7.1552z" fill="#2f2e41"/>
<polygon points="619.16 635.57 608.73 635.57 603.77 595.34 619.16 595.34" fill="#ffb7b7"/>
<path transform="translate(-183.99 -127)" d="m804.96 772.69-33.638-0.00125v-0.42546a13.093 13.093 0 0 1 13.093-13.092h8.4e-4l20.545 8.3e-4z" fill="#2f2e41"/>
<path transform="translate(-183.99 -127)" d="m850.91 483.5-3.4037-6.8074-28.931 14.466 0.85092 5.9564-5.531 7.2328s-9.3601 5.1055-7.6583 22.124l1.7018 16.168 2.1273 20.848-14.891 51.481-7.6583 68.074-5.531 54.884 26.804-1.2764 24.677-89.347 43.397 96.154 29.782-7.6583-40.844-95.303-5.1055-39.993s3.4037-21.273-12.764-35.739l2.5528-7.6583v-9.4372l8.5092-45.022z" fill="#2f2e41"/>
<rect transform="translate(-161.01 1131.6) rotate(-74.249)" x="808.35" y="613.62" width="68.961" height=".99996" opacity=".2"/>
<rect x="624.38" y="436.49" width="41.695" height="4.2546" fill="#3f3d56"/>
<ellipse cx="624.38" cy="439.04" rx="1.7018" ry="4.2546" fill="#3f3d56"/>
<circle transform="translate(-299.71 325.22) rotate(-28.663)" cx="827.17" cy="452.6" r="22.682" fill="#ffb7b7"/>
<circle cx="677.89" cy="297.43" r="20.066" fill="#2f2e41"/>
<path transform="translate(-183.99 -127)" d="m887.34 422.29a20.067 20.067 0 1 1-39.143 8.2288 20.067 20.067 0 0 0 39.143-8.2288z" fill="#2f2e41"/>
<path transform="translate(-183.99 -127)" d="m808.07 446.3a23.724 23.724 0 1 0 14.157-19.1c-3.9626-3.1957-8.8755-2.2052-12.87 1.1674-4.5167 3.8135-5.8571 6.4332-9.36 12.705 3.4444 0.48375 4.6281 4.7439 8.0726 5.2276z" fill="#2f2e41"/>
<path transform="translate(-183.99 -127)" d="m891.44 514.51c-0.25386 6.7219-0.75692 19.953-0.75692 20.628 0 0.71163-10.031 21.48-14.364 30.419v0.00454c-0.3083 0.63-0.58473 1.2011-0.82951 1.7043a4.0285 4.0285 0 0 1-3.7032 2.2754l-18.937-0.34a4.0361 4.0361 0 0 1-3.9661-3.9343l-2.1123-83.315a2.0598 2.0598 0 0 1 2.0578-2.1122h24.422a5.4908 5.4908 0 0 1 4.9406 3.1003l11.721 24.25a15.499 15.499 0 0 1 1.5276 7.3202z" fill="#6c63ff"/>
<path transform="translate(-183.99 -127)" d="m848.55 559.55a54.232 54.232 0 0 1-12.939-10.935 60.008 60.008 0 0 1-14.955-34.888c-0.96286-11.072 1.2342-19.303 6.53-24.463 6.7316-6.5591 15.894-5.6061 16.281-5.562l0.41022 0.04648 6.2076 5.2526-1.7566 2.076-5.5545-4.7c-1.7002-0.085-8.6415-0.10336-13.712 4.8562-4.6672 4.5652-6.5838 12.054-5.6965 22.258a57.308 57.308 0 0 0 14.208 33.237 52.657 52.657 0 0 0 12.29 10.44z" fill="#6c63ff"/>
<rect transform="translate(-273.23 58.368) rotate(-11.606)" x="850.45" y="531.29" width="33.78" height=".90647" fill="#3f3d56"/>
<rect transform="translate(-203.91 -91.398) rotate(-2.3374)" x="862.15" y="479.82" width=".90663" height="52.695" fill="#3f3d56"/>
<path transform="translate(-183.99 -127)" d="m891.44 514.51c-0.25386 6.7219-0.75692 19.953-0.75692 20.628 0 0.71163-10.031 21.48-14.364 30.419l8.0771-46.899a10.338 10.338 0 0 1 6.7129-7.973 15.215 15.215 0 0 1 0.33091 3.8256z" fill="#3f3d56"/>
<path transform="translate(-183.99 -127)" d="m841.82 612.8a7.979 7.979 0 0 0-2.5951-11.957l1.6415-18.16-10.792-3.6891-1.958 25.677a8.0223 8.0223 0 0 0 13.704 8.1279z" fill="#ffb7b7"/>
<path transform="translate(-183.99 -127)" d="m843.23 595.23-19.123-0.69345 0.809-92.222a12.449 12.449 0 0 1 8.4334-11.848 11.309 11.309 0 0 1 7.1126-0.00623 12.45 12.45 0 0 1 8.4216 12.742z" fill="#cbcbcb"/>
<path transform="translate(-183.99 -127)" d="m1011 773h-381a1 1 0 0 1 0-2h381a1 1 0 0 1 0 2z" fill="#cbcbcb"/>
</svg>