<svg data-name="Layer 1" viewBox="0 0 832.03 646" xmlns="http://www.w3.org/2000/svg"><path d="M526.37 644.36s-12.753-31.391 25.505-54.934z" fill="#e6e6e6" data-name="Path 482"/><path d="M510.69 643.79s-3.89-22.374-34-22.182z" fill="#e6e6e6" data-name="Path 483"/><path d="M798.33 644.36s-16.848-41.472 33.696-72.575z" fill="#e6e6e6" data-name="Path 482"/><path d="M777.61 643.6s-5.14-29.559-44.919-29.305" fill="#e6e6e6" data-name="Path 483"/><path fill="#cbcbcb" d="m483.22 179.57-16.64-8.84 1.24-.66 16.64 8.84z"/><path fill="#cbcbcb" d="m468.7 179.57-1.24-.66 16.64-8.84 1.24.66zM344.06 112.622l.804-1.567 4.7 2.409-.802 1.567zM442.31 162.98l-9.356-4.794.803-1.567 9.356 4.794zm-18.711-9.588-9.356-4.795.803-1.567 9.356 4.795zm-18.711-9.589-9.356-4.794.803-1.567 9.356 4.794zm-18.711-9.588-9.356-4.794.803-1.567 9.356 4.794zm-18.711-9.588-9.356-4.794.803-1.567 9.356 4.794zM451.667 167.77l.803-1.567 4.7 2.409-.802 1.567z"/><path d="M97.567 228.92q0 .825-.053 1.636a24.782 24.782 0 0 1-2.322 8.997c-.01.024-.023.047-.033.07a16.82 16.82 0 0 1-.192.39 24.488 24.488 0 0 1-1.318 2.328 24.903 24.903 0 0 1-20.439 11.502l.247 14.177 3.215-1.693.574 1.091-3.765 1.983.46 26.33.005.352-2.485.553.005-.353.782-42.439a24.854 24.854 0 0 1-17.583-7.65c-.157-.162-.312-.33-.464-.495l-.017-.019a24.956 24.956 0 0 1-4.54-7.027c.023.028.05.054.073.081a24.934 24.934 0 0 1 11.823-32.13l.26-.127a24.953 24.953 0 0 1 32.328 9.814c.152.255.298.516.44.778a24.798 24.798 0 0 1 2.999 11.851z" fill="#e5e5e5"/><circle cx="94.215" cy="206.96" r="32.674" fill="#e5e5e5"/><path transform="translate(-183.99 -127)" d="M254.08 312.14a32.677 32.677 0 0 0 54.445 34.581 32.677 32.677 0 1 1-54.445-34.581z" opacity=".2" style="isolation:isolate"/><path fill="#3f3d56" d="m95.983 297.99-3.337-.94.007-.36 1-54.35.05-2.71.001-.08.175-9.49.253-13.77.172-9.33h.092l.176 10.11.229 13.15.164 9.34v.07l.007.38.317 18.2.033 1.81.655 37.6z"/><path fill="#3f3d56" d="m94.098 258.835 5.4-2.844.754 1.43-5.401 2.844z"/><path d="M517.77 101.22a832.27 832.27 0 0 0-123.75 1.902c-19.832 1.793-39.979 3.729-59.444 8.055-15.679 3.484-33.875 9.373-43.644 23.09a22.291 22.291 0 0 0-3.48 19.514c2.329 7.82 8.123 14.328 14.294 19.426 14.203 11.733 31.825 18.561 47.565 27.882 28.74 17.02 55.043 39.96 71.926 69.101 7.429 12.823 14.496 29.874 6.223 44.004-8.104 13.843-26.196 18.612-40.95 20.861-18.493 2.819-37.54 2.054-56.11.476a584.65 584.65 0 0 1-60.652-8.884c-39.275-7.541-78.192-17.135-118.01-21.497a341.78 341.78 0 0 0-60.17-1.74c-18.124 1.223-36.404 4.09-53.43 10.626-13.12 5.036-27.106 12.655-34.193 25.362-6.831 12.249-4.167 26.374 3.272 37.675 8.95 13.598 22.907 22.915 37.418 29.726 16.522 7.754 34.193 12.78 51.887 17.055 8.974 2.168 17.996 4.127 27.02 6.077 1.882.407 2.687-2.485.798-2.893-18.196-3.932-36.445-7.876-54.19-13.568-16.42-5.267-33.224-12.014-46.671-23.074-10.88-8.947-21.222-22.017-20.58-36.876.647-14.979 13.215-25.438 25.534-31.876 15.395-8.045 32.885-11.964 50.024-14.012a303.94 303.94 0 0 1 59.09-.803c39.727 3.022 78.566 12.072 117.52 19.966 37.84 7.668 76.86 14.769 115.64 12.802 15.37-.78 31.839-2.982 45.41-10.74 6.213-3.553 11.816-8.562 14.974-15.081a33.774 33.774 0 0 0 2.58-19.845c-2.2-14.77-10.973-28.466-19.726-40.23a194.42 194.42 0 0 0-33.14-34.328 261.41 261.41 0 0 0-43.849-28.565c-8.238-4.338-16.593-8.509-24.445-13.532-7.528-4.817-14.953-10.613-19.55-18.432-3.976-6.764-4.705-14.482-.564-21.342 4.189-6.938 11.405-11.777 18.522-15.313 17.146-8.52 37.08-10.8 55.84-13.136a825.91 825.91 0 0 1 121.45-6.056q14.793.348 29.568 1.225c1.929.113 1.922-2.887 0-3z"/><path d="m491.6 5.05 6.23-4.982c-4.84-.534-6.828 2.105-7.642 4.194-3.78-1.57-7.897.488-7.897.488l12.464 4.524A9.432 9.432 0 0 0 491.6 5.05zM461.37 20.83l6.23-4.982c-4.84-.534-6.828 2.105-7.642 4.194-3.78-1.57-7.897.488-7.897.488l12.464 4.524a9.432 9.432 0 0 0-3.155-4.224zM491.6 45.8l6.23-4.982c-4.84-.534-6.828 2.105-7.642 4.194-3.78-1.57-7.897.488-7.897.488l12.464 4.524A9.432 9.432 0 0 0 491.6 45.8z" fill="#3f3d56"/><g data-name="Group 27"><circle cx="398.22" cy="34.413" r="18.768" fill="#ff6583" data-name="Ellipse 7"/><path d="M457.07 92.25h-92.073a1.885 1.885 0 0 1-.344-.027L408.2 16.799a3.048 3.048 0 0 1 5.307 0l29.224 50.614 1.4 2.421z" fill="#6c63ff" data-name="Path 63"/><path d="M508.33 92.25h-79.634l15.431-22.414 1.11-1.615 20.108-29.21a4.069 4.069 0 0 1 6.044-.361 3.638 3.638 0 0 1 .29.36z" fill="#6c63ff" data-name="Path 65"/></g><path d="M376.97 265.23c8.727 4.362 14.04 10.123 14.04 16.442 0 13.612-24.631 24.647-55.015 24.647-13.21 0-25.329-2.088-34.813-5.564 10.073 5.035 24.695 8.205 40.975 8.205 30.384 0 55.015-11.035 55.015-24.647 0-7.694-7.873-14.563-20.202-19.083z" fill="#f1f1f1"/><path d="M396.38 274.58c9.848 4.922 15.843 11.423 15.843 18.553 0 15.36-27.793 27.811-62.078 27.811-14.906 0-28.581-2.356-39.282-6.279 11.366 5.682 27.865 9.259 46.235 9.259 34.284 0 62.078-12.451 62.078-27.811 0-8.682-8.883-16.432-22.796-21.532z" fill="#f1f1f1"/><path d="M369.54 269.35c6.148 3.073 9.892 7.132 9.892 11.584 0 9.59-17.353 17.364-38.76 17.364a72.801 72.801 0 0 1-24.526-3.92c7.096 3.547 17.398 5.78 28.868 5.78 21.406 0 38.76-7.774 38.76-17.364 0-5.42-5.547-10.26-14.233-13.444z" fill="#f1f1f1"/><path d="M283.15 267.59s1.351 19.749 40.082 19.749 50.294-19.749 50.294-19.749zM338.12 215.78a27.187 27.187 0 0 0-19.584-5.357 27.282 27.282 0 0 1-3.304 53.629 27.288 27.288 0 0 0 22.888-48.272z" fill="#3f3d56"/><path fill="#3f3d56" d="M322.8 206.86h2.641v62.858H322.8z"/><path d="m498.98 160.15-.014-.024-.036-1.536 8.273-12.01-8.263 10.861-.03.325-.282-12.277 7.145-12.453-7.166 10.296.075-25.435v-.085l-.002.084-.475 20.046-6.512-8.143 6.491 9.87-.142 10.981-5.993-10.718 5.97 12.332-.079 6.107-.219 16.917-.015 1.264q.827.006 1.638-.028l-.374-16.249zM459.37 165.43l-.014-.024-.036-1.536 8.273-12.01-8.263 10.861-.03.325-.282-12.277 7.145-12.453-7.166 10.296.075-25.435v-.085l-.002.084-.475 20.046-6.512-8.143 6.491 9.87-.142 10.982-5.993-10.718 5.97 12.332-.079 6.106-.219 16.917-.015 1.264q.827.006 1.638-.028l-.374-16.249zM478.73 148.71l-.014-.024-.036-1.536 8.273-12.01L478.69 146l-.03.325-.282-12.277 7.145-12.453-7.166 10.296.075-25.435v-.085l-.002.084-.475 20.046-6.512-8.143 6.491 9.87-.142 10.982-5.993-10.718 5.97 12.332-.079 6.106-.219 16.917-.015 1.264q.827.006 1.638-.028l-.374-16.249z" fill="#cbcbcb"/><circle cx="151.59" cy="430.44" r="10.563" fill="#6c63ff"/><path fill="#ffb7b7" d="m715.4 625.42-9.78 3.63-18.67-35.99 14.43-5.36z"/><path d="m721.41 633.97-31.532 11.715-.148-.399a13.093 13.093 0 0 1 7.712-16.833h.001l19.258-7.155z" fill="#2f2e41"/><path fill="#ffb7b7" d="M619.16 635.57h-10.43l-4.96-40.23h15.39z"/><path d="m620.97 645.69-33.638-.001v-.426a13.093 13.093 0 0 1 13.093-13.092l20.546.001zM666.92 356.5l-3.404-6.807-28.93 14.466.85 5.956-5.53 7.233s-9.36 5.105-7.66 22.124l1.703 16.168 2.127 20.848-14.891 51.48-7.658 68.075-5.531 54.884 26.804-1.277 24.677-89.347 43.397 96.154 29.782-7.658-40.844-95.303-5.106-39.993s3.404-21.273-12.764-35.739l2.553-7.658v-9.437l8.51-45.022z" fill="#2f2e41"/><path opacity=".2" d="m649.001 520.175 18.72-66.372.963.272-18.72 66.371z"/><path fill="#3f3d56" d="M624.38 436.49h41.695v4.255H624.38z"/><ellipse cx="624.38" cy="439.04" rx="1.702" ry="4.255" fill="#3f3d56"/><circle transform="rotate(-28.663 486.627 749.167)" cx="827.17" cy="452.6" r="22.682" fill="#ffb7b7"/><circle cx="677.89" cy="297.43" r="20.066" fill="#2f2e41"/><path d="M703.35 295.29a20.067 20.067 0 1 1-39.143 8.229 20.067 20.067 0 0 0 39.143-8.229z" fill="#2f2e41"/><path d="M624.08 319.3a23.724 23.724 0 1 0 14.157-19.1c-3.963-3.196-8.875-2.205-12.87 1.167-4.517 3.814-5.857 6.434-9.36 12.705 3.444.484 4.628 4.744 8.073 5.228z" fill="#2f2e41"/><path d="M707.45 387.51c-.254 6.722-.757 19.953-.757 20.628 0 .712-10.03 21.48-14.364 30.419v.005c-.308.63-.585 1.2-.83 1.704a4.029 4.029 0 0 1-3.703 2.275l-18.937-.34a4.036 4.036 0 0 1-3.966-3.934l-2.112-83.315a2.06 2.06 0 0 1 2.058-2.112h24.422a5.49 5.49 0 0 1 4.94 3.1l11.721 24.25a15.499 15.499 0 0 1 1.528 7.32z" fill="#6c63ff"/><path d="M664.56 432.55a54.232 54.232 0 0 1-12.939-10.935 60.008 60.008 0 0 1-14.955-34.888c-.963-11.072 1.234-19.303 6.53-24.463 6.732-6.56 15.894-5.606 16.281-5.562l.41.046 6.208 5.253-1.757 2.076-5.554-4.7c-1.7-.085-8.642-.103-13.712 4.856-4.667 4.565-6.584 12.054-5.697 22.258a57.308 57.308 0 0 0 14.208 33.237 52.657 52.657 0 0 0 12.29 10.44z" fill="#6c63ff"/><path fill="#3f3d56" d="m666.717 407.701 33.09-6.795.182.887-33.09 6.796z"/><path fill="#3f3d56" d="m677.092 352.86.906-.036 2.149 52.651-.906.037zM707.45 387.51c-.254 6.722-.757 19.953-.757 20.628 0 .712-10.03 21.48-14.364 30.419l8.077-46.899a10.338 10.338 0 0 1 6.713-7.973 15.215 15.215 0 0 1 .331 3.826z"/><path d="M657.83 485.8a7.979 7.979 0 0 0-2.595-11.957l1.641-18.16-10.792-3.69-1.958 25.678a8.022 8.022 0 0 0 13.704 8.128z" fill="#ffb7b7"/><path d="m659.24 468.23-19.123-.693.809-92.222a12.449 12.449 0 0 1 8.433-11.848 11.309 11.309 0 0 1 7.113-.007 12.45 12.45 0 0 1 8.422 12.742zM827.01 646h-381a1 1 0 0 1 0-2h381a1 1 0 0 1 0 2z" fill="#cbcbcb"/></svg>