<?xml version="1.0" encoding="UTF-8"?>
<svg viewBox="0 0 654.04 501" xmlns="http://www.w3.org/2000/svg">
<g fill="#f2f2f2">
<path d="m130.68 375.14c-0.52634-0.88752-2.8034 0.06276-3.222-0.7427-0.41714-0.80256 1.6985-2.0254 2.9072-4.8189 0.21797-0.50377 1.5916-3.6784 0.57469-4.6579-1.9274-1.8568-10.747 5.8056-13.834 3.2981-0.67739-0.55028-1.1506-1.6488-3.2008-3.4324-0.8156-0.70953-1.3088-1.0299-1.7861-0.91071-0.67724 0.1691-0.73092 1.0755-1.4571 2.8577-1.0891 2.6728-1.7333 2.5114-2.3678 4.6438-0.47106 1.583-0.36346 2.5033-0.91777 2.6826-0.7844 0.25374-1.5064-1.4253-2.5005-1.275-1.0144 0.15343-1.6277 2.1084-1.8214 3.5721-0.36351 2.7468 0.64522 4.5593 1.2043 6.4652 0.60759 2.0712 0.96818 5.2211-0.43496 9.6801l-13.888 39.129c3.066-8.0292 11.944-30.039 15.674-38.219 1.0769-2.3611 2.2659-4.7561 4.7074-5.7013 2.3506-0.91004 5.5787-0.36672 9.6943-1.3582 0.48066-0.11578 1.8145-0.45513 1.9824-1.2396 0.1388-0.64859-0.64576-1.0106-0.52522-1.6181 0.16169-0.81482 1.7045-0.82481 3.6004-1.7649 1.3369-0.66288 2.1698-1.4512 2.886-2.1292 0.21594-0.20438 3.4257-3.2802 2.725-4.4616z"/>
<path d="m76.045 395.74c-0.58747 0.00225-0.77806 1.394-1.2942 1.3671-0.51426-0.02683-0.50401-1.418-1.5263-2.8173-0.18436-0.25234-1.3461-1.8425-2.1203-1.626-1.4674 0.41026-0.25155 6.95-2.3728 7.7414-0.46553 0.1737-1.1412 0.08899-2.6082 0.58061-0.58357 0.19558-0.88311 0.3452-0.96232 0.61385-0.11241 0.38119 0.31698 0.66907 0.98216 1.5397 0.99757 1.3057 0.73249 1.5753 1.596 2.502 0.64104 0.68795 1.1238 0.90068 1.0518 1.2245-0.10179 0.4582-1.1342 0.32811-1.3472 0.85939-0.21739 0.54216 0.56518 1.4072 1.2277 1.9246 1.2433 0.97096 2.4239 0.99883 3.5206 1.2743 1.1919 0.2994 2.8419 1.0312 4.6256 3.0065l15.198 18.106c-3.0562-3.8215-11.297-14.529-14.236-18.72-0.84815-1.2098-1.6805-2.4844-1.44-3.9554 0.23155-1.4162 1.4296-2.8439 2.1305-5.1499 0.08186-0.26932 0.30015-1.0219-0.03646-1.3306-0.27828-0.25526-0.68234 0.02535-0.9457-0.20908-0.35326-0.31446 0.08698-1.0746 0.17263-2.2763 0.06038-0.84741-0.08622-1.4836-0.2123-2.0308-0.03801-0.16496-0.62151-2.6278-1.4035-2.6248z"/>
<path d="M87.76536,398.36995l-.35394-3.15957,.16172-.23952c.74832-1.1076,1.12972-2.18927,1.1343-3.21601,.00076-.16324-.00687-.32648-.01449-.49278-.03051-.65907-.06865-1.47833,.35852-2.43337,.23952-.53244,.91232-1.76515,1.92381-1.61258,.27232,.03814,.47828,.16324,.63466,.3097,.02288-.03661,.04653-.07323,.0717-.1129,.31504-.48057,.56448-.68653,.80477-.88486,.1846-.15256,.3753-.3097,.67433-.68195,.1312-.16324,.23342-.30665,.31962-.42717,.26164-.36462,.60338-.79943,1.20601-.7918,.64381,.03051,.98098,.56296,1.20448,.91537,.39895,.62856,.57974,1.08167,.6995,1.38221,.04348,.10984,.09306,.23342,.11824,.27156,.20748,.30512,1.89406,.01983,2.52948-.08391,1.42722-.238,2.66221-.44396,3.17101,.45616,.36462,.64381,.09383,1.49511-.82918,2.59814-.28758,.34327-.59347,.60415-.86503,.80858,.22503,.13425,.42641,.34021,.50803,.66365h0c.19223,.76586-.46608,1.53325-1.95585,2.28386-.36996,.18765-.86808,.43785-1.56605,.55838-.32877,.05645-.62474,.07018-.878,.07781-.00534,.14646-.03967,.30512-.12892,.46837-.26164,.48057-.80629,.70941-1.62708,.65449-.90317-.04729-1.64691-.21969-2.30293-.37073-.57287-.1312-1.06641-.24257-1.45392-.21664-.71857,.05797-1.27237,.63313-1.92229,1.37916l-1.6225,1.89635Z"/>
<path d="M89.40724,379.55784l-2.96646,1.14379-.27271-.09567c-1.26119-.4429-2.40423-.53747-3.39855-.28146-.1581,.04067-.31406,.08945-.47298,.13901-.62978,.19669-1.41257,.44139-2.44473,.27043-.57578-.09664-1.93883-.43476-2.04782-1.45186-.03218-.27309,.03659-.50405,.13859-.69246-.04122-.01285-.08264-.02643-.12739-.04072-.54477-.18284-.80726-.37188-1.06005-.554-.1944-.13987-.39477-.28447-.83069-.47929-.19118-.08551-.35583-.148-.49428-.20081-.41907-.1606-.92633-.38088-1.07181-.96572-.13379-.6305,.29572-1.09169,.57992-1.39727,.50681-.54534,.89924-.83514,1.15958-1.02722,.09522-.06992,.20218-.14923,.23269-.18325,.24252-.27809-.46124-1.83715-.72277-2.42548-.59223-1.32018-1.10471-2.46254-.36308-3.18301,.53027-.516,1.42242-.46999,2.72349,.14304,.40498,.19111,.73492,.42082,1.00155,.63164,.07279-.25172,.22093-.49876,.51308-.65975h0c.69206-.3802,1.60133,.06193,2.70527,1.31258,.27536,.31027,.64372,.72863,.93735,1.3732,.138,.3037,.22635,.58651,.29797,.82955,.14302-.03198,.30521-.03903,.48575,.0059,.53122,.13119,.89073,.59998,1.0458,1.40785,.18334,.88563,.20523,1.64877,.22554,2.32165,.0184,.58742,.03585,1.09306,.15923,1.46132,.23834,.68036,.93516,1.07016,1.82165,1.50959l2.24588,1.08843Z"/>
<path d="M87.76536,370.24966l-.35394-3.15957,.16172-.23952c.74832-1.1076,1.12972-2.18927,1.1343-3.21601,.00076-.16324-.00687-.32648-.01449-.49278-.03051-.65907-.06865-1.47833,.35852-2.43337,.23952-.53244,.91232-1.76515,1.92381-1.61258,.27232,.03814,.47828,.16324,.63466,.3097,.02288-.03661,.04653-.07323,.0717-.1129,.31504-.48057,.56448-.68653,.80477-.88486,.1846-.15256,.3753-.3097,.67433-.68195,.1312-.16324,.23342-.30665,.31962-.42717,.26164-.36462,.60338-.79943,1.20601-.7918,.64381,.03051,.98098,.56296,1.20448,.91537,.39895,.62856,.57974,1.08167,.6995,1.38221,.04348,.10984,.09306,.23342,.11824,.27156,.20748,.30512,1.89406,.01983,2.52948-.08391,1.42722-.238,2.66221-.44396,3.17101,.45616,.36462,.64381,.09383,1.49511-.82918,2.59814-.28758,.34327-.59347,.60415-.86503,.80858,.22503,.13425,.42641,.34021,.50803,.66365h0c.19223,.76586-.46608,1.53325-1.95585,2.28386-.36996,.18765-.86808,.43785-1.56605,.55838-.32877,.05645-.62474,.07018-.878,.07781-.00534,.14646-.03967,.30512-.12892,.46837-.26164,.48057-.80629,.70941-1.62708,.65449-.90317-.04729-1.64691-.21969-2.30293-.37073-.57287-.1312-1.06641-.24257-1.45392-.21664-.71857,.05797-1.27237,.63313-1.92229,1.37916l-1.6225,1.89635Z"/>
<path d="m90.998 431.58-0.66212-0.41497-0.16019-0.76434 0.16019 0.76434-0.77197 0.08849c-0.0122-0.0717-0.05416-0.23647-0.11747-0.4943-0.34555-1.4127-1.399-5.7119-2.2778-12.483-0.6133-4.7264-0.96038-9.5855-1.0321-14.445-0.0717-4.8667 0.15866-8.5511 0.34327-11.512 0.13959-2.2335 0.30894-4.3602 0.47523-6.432 0.44243-5.535 0.85969-10.763 0.54922-16.551-0.06865-1.2922-0.21282-3.9819-1.7842-6.844-0.91156-1.6599-2.1672-3.1336-3.7324-4.3785l0.97335-1.2236c1.7278 1.3761 3.1168 3.0085 4.1291 4.8515 1.7423 3.1733 1.8994 6.104 1.9749 7.5122 0.3158 5.8904-0.10603 11.169-0.55304 16.757-0.16477 2.0642-0.33411 4.1817-0.47294 6.4061-0.18307 2.9338-0.41116 6.5861-0.34021 11.39 0.07018 4.8011 0.41344 9.6008 1.0184 14.268 0.86808 6.6853 1.9063 10.92 2.2472 12.312 0.18155 0.74298 0.21969 0.89859 0.03356 1.193z"/>
<path d="M79.1227,360.59551c-.06408,0-.12892-.00153-.19452-.0061-1.33034-.0717-2.56228-.86808-3.66226-2.36624-.51566-.70484-.77959-1.50884-1.30593-3.11227-.08162-.24715-.47828-1.50121-.71933-3.22669-.1579-1.12744-.13807-1.59885,.08543-2.01535,.24791-.46379,.64915-.78722,1.10074-1.00539-.01983-.14951-.00381-.3036,.06102-.46074,.26622-.65144,.97411-.56601,1.35704-.52481,.19375,.02441,.43557,.05645,.69645,.04272,.41039-.01983,.63085-.14188,.96496-.32496,.31962-.17545,.71704-.39361,1.3067-.51414,1.16253-.24257,2.13664,.08696,2.45778,.19528,1.68963,.56296,2.52262,1.87652,3.48681,3.39756,.19223,.30512,.85206,1.41578,1.28763,2.93835,.31428,1.09845,.27004,1.58665,.17545,1.94975-.19223,.74603-.6461,1.1732-1.79871,2.11604-1.20372,.98708-1.80786,1.48138-2.32658,1.78193-1.20753,.69721-1.96577,1.13506-2.97268,1.13506Z"/>
</g>
<g fill="#f2f2f2">
<path d="m575.68 376.14c-0.52634-0.88752-2.8034 0.06276-3.222-0.7427-0.41714-0.80256 1.6985-2.0254 2.9072-4.8189 0.21797-0.50377 1.5916-3.6784 0.57469-4.6579-1.9274-1.8568-10.747 5.8056-13.834 3.2981-0.67739-0.55028-1.1506-1.6488-3.2008-3.4324-0.8156-0.70953-1.3088-1.0299-1.7861-0.91071-0.67724 0.1691-0.73092 1.0755-1.4571 2.8577-1.0891 2.6728-1.7333 2.5114-2.3678 4.6438-0.47106 1.583-0.36346 2.5033-0.91777 2.6826-0.7844 0.25374-1.5064-1.4253-2.5005-1.275-1.0144 0.15343-1.6277 2.1084-1.8214 3.5721-0.36351 2.7468 0.64522 4.5593 1.2043 6.4652 0.60759 2.0712 0.96818 5.2211-0.43496 9.6801l-13.888 39.129c3.066-8.0292 11.944-30.039 15.674-38.219 1.0769-2.3611 2.2659-4.7561 4.7074-5.7013 2.3506-0.91004 5.5787-0.36672 9.6943-1.3582 0.48066-0.11578 1.8145-0.45513 1.9824-1.2396 0.1388-0.64859-0.64576-1.0106-0.52522-1.6181 0.16169-0.81482 1.7045-0.82481 3.6004-1.7649 1.3369-0.66288 2.1698-1.4512 2.886-2.1292 0.21594-0.20438 3.4257-3.2802 2.725-4.4616z"/>
<path d="m521.05 396.74c-0.58747 0.00225-0.77806 1.394-1.2942 1.3671-0.51426-0.02683-0.50401-1.418-1.5263-2.8173-0.18436-0.25234-1.3461-1.8425-2.1203-1.626-1.4674 0.41026-0.25155 6.95-2.3728 7.7414-0.46553 0.1737-1.1412 0.08899-2.6082 0.58061-0.58357 0.19558-0.88311 0.3452-0.96232 0.61385-0.11241 0.38119 0.31698 0.66907 0.98216 1.5397 0.99757 1.3057 0.73249 1.5753 1.596 2.502 0.64104 0.68795 1.1238 0.90068 1.0518 1.2245-0.10179 0.4582-1.1342 0.32811-1.3472 0.85939-0.21739 0.54216 0.56518 1.4072 1.2277 1.9246 1.2433 0.97096 2.4239 0.99883 3.5206 1.2743 1.1919 0.2994 2.8419 1.0312 4.6256 3.0065l15.198 18.106c-3.0562-3.8215-11.297-14.529-14.236-18.72-0.84815-1.2098-1.6805-2.4844-1.44-3.9554 0.23155-1.4162 1.4296-2.8439 2.1305-5.1499 0.08186-0.26932 0.30015-1.0219-0.03646-1.3306-0.27828-0.25526-0.68234 0.02535-0.9457-0.20908-0.35326-0.31446 0.08698-1.0746 0.17263-2.2763 0.06038-0.84741-0.08622-1.4836-0.2123-2.0308-0.03801-0.16496-0.62151-2.6278-1.4035-2.6248z"/>
<path d="M532.76536,399.36995l-.35394-3.15957,.16172-.23952c.74832-1.1076,1.12972-2.18927,1.1343-3.21601,.00076-.16324-.00687-.32648-.01449-.49278-.03051-.65907-.06865-1.47833,.35852-2.43337,.23952-.53244,.91232-1.76515,1.92381-1.61258,.27232,.03814,.47828,.16324,.63466,.3097,.02288-.03661,.04653-.07323,.0717-.1129,.31504-.48057,.56448-.68653,.80477-.88486,.1846-.15256,.3753-.3097,.67433-.68195,.1312-.16324,.23342-.30665,.31962-.42717,.26164-.36462,.60338-.79943,1.20601-.7918,.64381,.03051,.98098,.56296,1.20448,.91537,.39895,.62856,.57974,1.08167,.6995,1.38221,.04348,.10984,.09306,.23342,.11824,.27156,.20748,.30512,1.89406,.01983,2.52948-.08391,1.42722-.238,2.66221-.44396,3.17101,.45616,.36462,.64381,.09383,1.49511-.82918,2.59814-.28758,.34327-.59347,.60415-.86503,.80858,.22503,.13425,.42641,.34021,.50803,.66365h0c.19223,.76586-.46608,1.53325-1.95585,2.28386-.36996,.18765-.86808,.43785-1.56605,.55838-.32877,.05645-.62474,.07018-.878,.07781-.00534,.14646-.03967,.30512-.12892,.46837-.26164,.48057-.80629,.70941-1.62708,.65449-.90317-.04729-1.64691-.21969-2.30293-.37073-.57287-.1312-1.06641-.24257-1.45392-.21664-.71857,.05797-1.27237,.63313-1.92229,1.37916l-1.6225,1.89635Z"/>
<path d="M534.40724,380.55784l-2.96646,1.14379-.27271-.09567c-1.26119-.4429-2.40423-.53747-3.39855-.28146-.1581,.04067-.31406,.08945-.47298,.13901-.62978,.19669-1.41257,.44139-2.44473,.27043-.57578-.09664-1.93883-.43476-2.04782-1.45186-.03218-.27309,.03659-.50405,.13859-.69246-.04122-.01285-.08264-.02643-.12739-.04072-.54477-.18284-.80726-.37188-1.06005-.554-.1944-.13987-.39477-.28447-.83069-.47929-.19118-.08551-.35583-.148-.49428-.20081-.41907-.1606-.92633-.38088-1.07181-.96572-.13379-.6305,.29572-1.09169,.57992-1.39727,.50681-.54534,.89924-.83514,1.15958-1.02722,.09522-.06992,.20218-.14923,.23269-.18325,.24252-.27809-.46124-1.83715-.72277-2.42548-.59223-1.32018-1.10471-2.46254-.36308-3.18301,.53027-.516,1.42242-.46999,2.72349,.14304,.40498,.19111,.73492,.42082,1.00155,.63164,.07279-.25172,.22093-.49876,.51308-.65975h0c.69206-.3802,1.60133,.06193,2.70527,1.31258,.27536,.31027,.64372,.72863,.93735,1.3732,.138,.3037,.22635,.58651,.29797,.82955,.14302-.03198,.30521-.03903,.48575,.0059,.53122,.13119,.89073,.59998,1.0458,1.40785,.18334,.88563,.20523,1.64877,.22554,2.32165,.0184,.58742,.03585,1.09306,.15923,1.46132,.23834,.68036,.93516,1.07016,1.82165,1.50959l2.24588,1.08843Z"/>
<path d="M532.76536,371.24966l-.35394-3.15957,.16172-.23952c.74832-1.1076,1.12972-2.18927,1.1343-3.21601,.00076-.16324-.00687-.32648-.01449-.49278-.03051-.65907-.06865-1.47833,.35852-2.43337,.23952-.53244,.91232-1.76515,1.92381-1.61258,.27232,.03814,.47828,.16324,.63466,.3097,.02288-.03661,.04653-.07323,.0717-.1129,.31504-.48057,.56448-.68653,.80477-.88486,.1846-.15256,.3753-.3097,.67433-.68195,.1312-.16324,.23342-.30665,.31962-.42717,.26164-.36462,.60338-.79943,1.20601-.7918,.64381,.03051,.98098,.56296,1.20448,.91537,.39895,.62856,.57974,1.08167,.6995,1.38221,.04348,.10984,.09306,.23342,.11824,.27156,.20748,.30512,1.89406,.01983,2.52948-.08391,1.42722-.238,2.66221-.44396,3.17101,.45616,.36462,.64381,.09383,1.49511-.82918,2.59814-.28758,.34327-.59347,.60415-.86503,.80858,.22503,.13425,.42641,.34021,.50803,.66365h0c.19223,.76586-.46608,1.53325-1.95585,2.28386-.36996,.18765-.86808,.43785-1.56605,.55838-.32877,.05645-.62474,.07018-.878,.07781-.00534,.14646-.03967,.30512-.12892,.46837-.26164,.48057-.80629,.70941-1.62708,.65449-.90317-.04729-1.64691-.21969-2.30293-.37073-.57287-.1312-1.06641-.24257-1.45392-.21664-.71857,.05797-1.27237,.63313-1.92229,1.37916l-1.6225,1.89635Z"/>
<path d="m536 432.58-0.66212-0.41497-0.16019-0.76434 0.16019 0.76434-0.77197 0.08849c-0.0122-0.0717-0.05416-0.23647-0.11747-0.4943-0.34555-1.4127-1.399-5.7119-2.2778-12.483-0.6133-4.7264-0.96038-9.5855-1.0321-14.445-0.0717-4.8667 0.15866-8.5511 0.34327-11.512 0.13959-2.2335 0.30894-4.3602 0.47523-6.432 0.44243-5.535 0.85969-10.763 0.54922-16.551-0.06865-1.2922-0.21282-3.9819-1.7842-6.844-0.91156-1.6599-2.1672-3.1336-3.7324-4.3785l0.97335-1.2236c1.7278 1.3761 3.1168 3.0085 4.1291 4.8515 1.7423 3.1733 1.8994 6.104 1.9749 7.5122 0.3158 5.8904-0.10603 11.169-0.55304 16.757-0.16477 2.0642-0.33411 4.1817-0.47294 6.4061-0.18307 2.9338-0.41116 6.5861-0.34021 11.39 0.07018 4.8011 0.41344 9.6008 1.0184 14.268 0.86808 6.6853 1.9063 10.92 2.2472 12.312 0.18155 0.74298 0.21969 0.89859 0.03356 1.193z"/>
<path d="M524.1227,361.59551c-.06408,0-.12892-.00153-.19452-.0061-1.33034-.0717-2.56228-.86808-3.66226-2.36624-.51566-.70484-.77959-1.50884-1.30593-3.11227-.08162-.24715-.47828-1.50121-.71933-3.22669-.1579-1.12744-.13807-1.59885,.08543-2.01535,.24791-.46379,.64915-.78722,1.10074-1.00539-.01983-.14951-.00381-.3036,.06102-.46074,.26622-.65144,.97411-.56601,1.35704-.52481,.19375,.02441,.43557,.05645,.69645,.04272,.41039-.01983,.63085-.14188,.96496-.32496,.31962-.17545,.71704-.39361,1.3067-.51414,1.16253-.24257,2.13664,.08696,2.45778,.19528,1.68963,.56296,2.52262,1.87652,3.48681,3.39756,.19223,.30512,.85206,1.41578,1.28763,2.93835,.31428,1.09845,.27004,1.58665,.17545,1.94975-.19223,.74603-.6461,1.1732-1.79871,2.11604-1.20372,.98708-1.80786,1.48138-2.32658,1.78193-1.20753,.69721-1.96577,1.13506-2.97268,1.13506Z"/>
</g>
<circle cx="320.32" cy="127.1" r="68" fill="#ff6884"/>
<path d="m583.04 431.16c0 0.46394-0.37609 0.84003-0.84003 0.84003h-582.2v-1.68h582.2c0.46393 0 0.84003 0.37609 0.84003 0.84003z" fill="#e6e6e6"/>
<path d="m495.32 431.1c0 38.108 4 66-37.5 69-44.563 3.2214-37.5-30.892-37.5-69s-6-76 37.5-69c20.448 3.2904 37.5 30.892 37.5 69z" fill="#3f3d56"/>
<ellipse cx="432.32" cy="431.1" rx="6" ry="48" fill="#e6e6e6"/>
<path d="m194.95 369.73c0 33.629 3.5299 58.244-33.093 60.891-39.326 2.8429-33.093-27.262-33.093-60.891s-5.2949-67.069 33.093-60.891c18.045 2.9037 33.093 27.262 33.093 60.891z" fill="#3f3d56"/>
<ellipse cx="139.36" cy="369.73" rx="5.2949" ry="42.359" fill="#e6e6e6"/>
<path d="m251.82 430.6c0 38.108 4 66-37.5 69-44.563 3.2214-37.5-30.892-37.5-69s-6-76 37.5-69c20.448 3.2904 37.5 30.892 37.5 69z" fill="#3f3d56"/>
<ellipse cx="188.82" cy="430.6" rx="6" ry="48" fill="#e6e6e6"/>
<path d="m133.32 289.1v23.654l-6.5 10.846 2 38 1.6181 0.99996-1.1181-38.5c11.393-4.2416 15.119 3.5714 14 19l-2 26 32 20 4-41 15-7 16.5 69.5h276.45c11.396 0 20.502-9.4826 20.041-20.869l-3.4892-86.131-9.4134-9.4134-8.7202-100.86c-2.1746-25.154-23.503-44.299-48.745-43.755l-172.93 3.727c-9.3818 0.20219-18.651 2.091-27.363 5.5761l-41.824 16.73-26.996 26.996-4.0039 65.004-10.207-0.8876c-7.3426-0.63849-14.039 4.2142-15.719 11.391l-2.5738 10.997z" fill="#e6e6e6"/>
<circle cx="222.82" cy="372.6" r="10" fill="#3f3d56"/>
<circle cx="245.82" cy="372.6" r="10" fill="#3f3d56"/>
<circle cx="469.82" cy="372.6" r="10" fill="#3f3d56"/>
<circle cx="492.82" cy="372.6" r="10" fill="#3f3d56"/>
<path d="m477.21 278.67h-235.09c-1.7974 0-3.4702-0.71582-4.7104-2.0166s-1.877-3.0059-1.792-4.8008l3.4346-72.625c0.1626-3.4336 2.9824-6.1582 6.419-6.2022l221.98-2.8574c3.2778-0.03125 6.1201 2.3994 6.541 5.6816l9.6748 75.482c0.23779 1.8545-0.33447 3.7236-1.5698 5.1279-1.2358 1.4043-3.0171 2.21-4.8872 2.21z" fill="#fff"/>
<path d="m209.29 275.1h-15.254c-1.8096 0-3.5522-0.76172-4.7803-2.0908-1.2285-1.3291-1.8516-3.126-1.7095-4.9307l4.3906-55.721c0.24072-3.0596 2.5308-5.5 5.5688-5.9336l15.763-2.252c1.9736-0.28027 3.939 0.3418 5.3892 1.7109 1.4507 1.3701 2.186 3.2949 2.0181 5.2822l-4.8989 57.973c-0.28711 3.3984-3.0762 5.9619-6.4868 5.9619z" fill="#fff"/>
<path d="m174.21 273.68c-0.15771 0-0.31641-0.00586-0.4751-0.0166l-1.791-0.12793c-1.769-0.12695-3.373-0.94336-4.5156-2.2998-1.1426-1.3574-1.6743-3.0762-1.498-4.8418l4.9272-49.273c0.29199-2.917 2.5151-5.291 5.4077-5.7734 1.9712-0.33105 3.9517 0.25098 5.4336 1.5908 1.4824 1.3379 2.2598 3.249 2.1333 5.2422l-3.1367 49.402c-0.11084 1.7451-0.89697 3.3398-2.2144 4.4902-1.1968 1.0459-2.6982 1.6074-4.271 1.6074z" fill="#fff"/>
<path d="m149.41 374.21-2.5941-56.614s-6-8-10-6-9.9409 13.122-9.9409 13.122 11.594-0.75984 11.268 11.559 1.9864 32.248 1.9864 32.248l9.2811 5.6847z" fill="#ccc"/>
<path d="m173.56 389.01 1.2563-42.236 12.72-15.024s17-3.6732 16.64 15.591 5.1398 63.764 5.1398 63.764l-12.431-7.8077s-3.069-47.692-12.069-52.692-6-1-6-1l-5.2563 39.406z" fill="#ccc"/>
<path d="m160.31 280.73-9.8557-5.6318h1.0762c1.5372 0 2.7834-1.2462 2.7834-2.7835v-24.433c0-1.5373-1.2462-2.7834-2.7834-2.7834h-10.433c-1.5372 0-2.7834 1.2462-2.7834 2.7834v24.433c0 1.5373 1.2462 2.7835 2.7834 2.7835h5.3262l12.894 7.3682 0.99219-1.7363z" fill="#3f3d56"/>
<rect transform="translate(94.901 -34.207) rotate(16.043)" x="161.32" y="316.1" width="15" height="7" rx="3.5" ry="3.5" fill="#3f3d56"/>
<rect transform="translate(11.182 -20.049) rotate(2.4717)" x="450.3" y="245.64" width="39.905" height="7" rx="3.5" ry="3.5" fill="#3f3d56"/>
<rect transform="translate(14.057 -21.324) rotate(2.4717)" x="481.3" y="311.64" width="39.905" height="7" rx="3.5" ry="3.5" fill="#3f3d56"/>
<circle cx="383.82" cy="312.6" r="76" fill="#3f3d56"/>
<circle cx="383.82" cy="312.6" r="45" fill="#e6e6e6"/>
<path d="m484.51 161.67c0.3825 4.4363 2.9816 7.835 5.8048 7.5911s4.8011-4.0376 4.4179-8.4754c-0.12877-1.7748-0.6807-3.493-1.6096-5.0108l-1.858-18.776-8.7927 1.0597 2.7652 18.398c-0.65548 1.655-0.90499 3.443-0.72762 5.2142z" fill="#ffb6b6"/>
<path d="m459.06 52.975s9.7015-2.7327 13.431 1.8941 17.64 50.064 17.64 50.064l4.319 48.901-13.773-4.1678-5.3602-38.565-9-20-7.2568-38.126z" fill="#6c63ff"/>
<rect x="426.32" y="23.558" width="29.568" height="28.039" fill="#2f2e41"/>
<circle cx="440.79" cy="23.426" r="14.417" fill="#ffb6b6"/>
<path d="m433.97 0.10742c-9.2141 1.4261-8.7749 4.8499-11.725 6.6273-5.1979 3.1313-7.2487 12.174-4.5036 18.141 0.73345 1.5943 2.2799 3.7692 1.5294 6.1175-0.57613 1.8027-2.2371 2.8662-2.549 3.0588-2.5529 1.5763-0.88542-0.29896-2.0392 1.0196-1.2735 1.4554 0.69935 3.5112-0.50979 6.1175-1.0719 2.3106-3.2815 2.1156-3.5686 3.5686-0.49423 2.502 5.1783 7.5327 11.215 7.1371 5.3752-0.35222 9.3683-4.8966 10.706-9.1763 0.89575-2.8668 1.282-7.798-1.0196-10.196-0.32285-0.33629-1.2053-1.1507-2.0392-2.549-0.65989-1.1065-1.5286-2.5631-1.0196-3.5686 0.54228-1.0712 2.0797-0.50737 3.0588-1.5294 1.3278-1.386-0.24979-3.7277 0-6.1175 0.42304-4.0467 6.1568-8.9138 12.235-8.1567 6.8953 0.85891 9.4244 8.3569 9.6861 9.1763 0.54228 1.6983 0.53145 3.3413 0.50979 6.6273-0.03099 4.7157-0.05053 7.6713-1.5294 10.706-2.127 4.3642-4.8369 3.8927-5.6077 7.1371-1.2017 5.0585 4.4514 10.139 5.0979 10.706 4.7937 4.2023 12.034 5.4658 13.255 3.5686 1.0999-1.7097-3.7287-4.3693-3.5686-9.6861 0.13877-4.6075 3.8675-6.012 3.0588-9.1763-0.89015-3.4831-5.6402-2.6885-7.6469-6.6273-1.873-3.6764 1.5788-5.7162 1.0196-13.255-0.11836-1.5947-0.61907-6.1713-3.5686-10.706-1.2994-1.9976-2.6209-4.0292-5.0979-5.0979-2.773-1.1964-10.504-4.6207-15.378-3.8664z" fill="#2f2e41"/>
<path d="m427.85 12.852c0.37401 3.1568 5.1144 4.7039 7.1371 5.0979 0.85667 0.1669 3.7516 0.73084 6.6273-0.50979 1.0629-0.45858 1.4502-0.87328 2.549-1.0196 1.4876-0.19802 2.2371 0.36778 4.5881 1.0196 2.6143 0.7248 3.9215 1.0872 4.5881 0.50979 1.0898-0.94391 0.25259-4.0318-1.0196-6.1175-2.3523-3.8565-6.6582-5.0507-8.6665-5.6077-2.2944-0.63637-6.9505-1.9278-11.215 0.50979-0.57022 0.3259-4.9681 2.9102-4.5881 6.1175z" fill="#2f2e41"/>
<polygon points="498.03 296.5 505.39 296.67 509.49 263.61 498.63 263.36" fill="#ffb6b6"/>
<path d="m523.27 311.85c0 1.243-0.88213 2.2507-1.9703 2.2507h-14.605s-1.4373-5.7775-7.2973-8.2639l-0.40445 8.2639h-7.5344l0.91287-13.288s-2.0155-7.1091 2.1702-10.743c4.1858-3.634 0.79546-3.1281 0.79546-3.1281l1.6466-8.2242 11.385 1.3388 0.08371 12.91 5.5252 12.815 8.1041 4.0033c0.72131 0.3563 1.1882 1.1682 1.1882 2.0658l9e-5 2e-5z" fill="#2f2e41"/>
<polygon points="464.57 231.75 471.77 230.2 468.04 197.1 457.42 199.39" fill="#ffb6b6"/>
<path d="m492.71 240.78c0.29018 1.2087-0.33233 2.3945-1.3904 2.6485l-14.202 3.4096s-2.7463-5.2824-9.0249-6.332l1.5359 8.13-7.3262 1.7589-2.2144-13.134s-3.6194-6.4422-0.39763-10.953c3.2218-4.5107 0.04324-3.2274 0.04324-3.2274l-0.31879-8.3814 11.383-1.356 3.0952 12.534 8.364 11.171 8.8148 2.0008c0.78455 0.17807 1.4281 0.85849 1.6377 1.7314h9e-5z" fill="#2f2e41"/>
<polygon points="450.82 39.6 432.82 40.6 427.82 50.6 408.82 60.6 411.82 109.91 404.96 134.71 405.82 141.6 472.82 139.6 468.82 65.6 469.82 53.6 456.82 49.6" fill="#6c63ff"/>
<path d="m406.32 132.1s-15 26.504 0 30.252c6.6729 1.6674 13.742 2.7909 19.533 3.5244 6.9344 0.87829 13.318-3.8817 14.467-10.776l16 55 16-4 3-28.63 19.441 19.441-2.4409 78.189 18-1 19-85s1-6-14-14-42-34-42-34l-46-14-21 5z" fill="#2f2e41"/>
<path d="m437.82 149.6-26-17 32-34s18-7 23 20 8 51 8 51l-37-20z" fill="#2f2e41"/>
<path d="m384.17 98.849 1.1395-7.7482c0.83038-5.6467-2.915-10.575-7.9944-11.788v-3.2123c0-2.7614-2.2386-5-5-5s-5 2.2386-5 5v4.2849l-19 4.0303v-5.3152c0-2.7614-2.2386-5-5-5s-5 2.2386-5 5v5.0516l-1.8889-0.49274c-5.6409-1.4716-10.097 5.0005-6.5886 9.6562 0.04535 0.06018 0.09143 0.12042 0.13831 0.18066 4.6834 6.0216 6.0216 11.374 6.0216 11.374l-3.3453 18.065 3.8102 37.558c0.49103 4.8406 4.6572 8.4678 9.5194 8.2877l36.993-1.3701c4.8583-0.17993 8.7477-4.0973 8.8801-8.9572 0.47125-17.311 0.52545-54.986-7.6846-59.604z" fill="#3f3d56"/>
<path d="M351.05065,163.7445c-.51855,0-.95703-.3999-.99609-.92529l-2.00732-26.7627c-.0415-.55078,.37158-1.03076,.92236-1.07178,.5459-.04297,1.03076,.37158,1.07178,.92236l2.00732,26.7627c.0415,.55078-.37158,1.03076-.92236,1.07178-.02539,.00195-.05078,.00293-.07568,.00293Z" fill="#ffb6b6"/>
<path d="M335.99596,105.87047c-.48779,0-.91504-.35791-.98779-.85498-.08008-.54639,.29785-1.0542,.84424-1.13428l48.3291-7.08301c.54639-.0791,1.0542,.29785,1.13428,.84424s-.29785,1.0542-.84424,1.13428l-48.3291,7.08301c-.04932,.00732-.09814,.01074-.14648,.01074Z" fill="#ffb6b6"/>
<g fill="#f2f2f2">
<path d="m52.097 395.62c-0.33691-0.56811-1.7945 0.04017-2.0624-0.47541-0.26701-0.51372 1.0872-1.2965 1.8609-3.0846 0.13952-0.32247 1.0188-2.3545 0.36787-2.9816-1.2338-1.1885-6.8795 3.7162-8.8553 2.1112-0.4336-0.35224-0.73652-1.0554-2.0488-2.1971-0.52207-0.45418-0.83776-0.65925-1.1433-0.58295-0.43351 0.10825-0.46787 0.68845-0.93272 1.8292-0.69714 1.7108-1.1095 1.6075-1.5157 2.9725-0.30153 1.0133-0.23265 1.6024-0.58747 1.7172-0.5021 0.16242-0.96427-0.91236-1.6006-0.81613-0.64934 0.09821-1.0419 1.3496-1.1659 2.2866-0.23269 1.7582 0.41301 2.9185 0.77089 4.1384 0.38892 1.3258 0.61974 3.342-0.27842 6.1963l-8.8898 25.047c1.9626-5.1396 7.6452-19.228 10.033-24.464 0.68932-1.5114 1.4504-3.0444 3.0132-3.6494 1.5046-0.58253 3.571-0.23474 6.2054-0.86938 0.30767-0.07411 1.1614-0.29133 1.2689-0.79351 0.08884-0.41517-0.41336-0.6469-0.3362-1.0357 0.1035-0.52157 1.0911-0.52796 2.3046-1.1297 0.85574-0.42432 1.3889-0.92894 1.8473-1.3629 0.13822-0.13083 2.1928-2.0997 1.7443-2.8559z"/>
<path d="M17.12186,408.80216c-.37604,.00144-.49804,.89232-.82841,.87508-.32918-.01717-.32262-.90769-.977-1.80335-.11801-.16152-.86167-1.17938-1.35723-1.04083-.93931,.26261-.16102,4.44875-1.51886,4.95536-.29799,.11118-.73052,.05696-1.66952,.37165-.37355,.12519-.56528,.22096-.61599,.39293-.07195,.244,.2029,.42827,.62869,.98558,.63855,.83579,.46887,1.00837,1.02161,1.60157,.41033,.44036,.71934,.57653,.6733,.7838-.06515,.2933-.72602,.21002-.86238,.5501-.13915,.34704,.36178,.90078,.78586,1.23197,.79582,.62152,1.55156,.63936,2.25359,.81571,.76292,.19165,1.81911,.66011,2.96086,1.92449l9.72823,11.59c-1.95626-2.44617-7.23158-9.30034-9.11224-11.98292-.54291-.7744-1.07571-1.59029-.92175-2.5319,.14822-.90655,.91513-1.82039,1.36375-3.29648,.0524-.17239,.19213-.65411-.02334-.85174-.17813-.16339-.43677,.01623-.60535-.13384-.22613-.20129,.05568-.68784,.1105-1.45709,.03865-.54243-.05519-.9497-.1359-1.29992-.02433-.10559-.39783-1.68208-.89842-1.68015Z"/>
<path d="M24.62389,410.4862l-.22656-2.02246,.10352-.15332c.479-.70898,.72314-1.40137,.72607-2.05859,.00049-.10449-.00439-.20898-.00928-.31543-.01953-.42188-.04395-.94629,.22949-1.55762,.15332-.34082,.58398-1.12988,1.23145-1.03223,.17432,.02441,.30615,.10449,.40625,.19824l.0459-.07227c.20166-.30762,.36133-.43945,.51514-.56641,.11816-.09766,.24023-.19824,.43164-.43652,.08398-.10449,.14941-.19629,.20459-.27344,.16748-.2334,.38623-.51172,.77197-.50684,.41211,.01953,.62793,.36035,.771,.58594,.25537,.40234,.37109,.69238,.44775,.88477,.02783,.07031,.05957,.14941,.07568,.17383,.13281,.19531,1.2124,.0127,1.61914-.05371,.91357-.15234,1.7041-.28418,2.02979,.29199,.2334,.41211,.06006,.95703-.53076,1.66309-.18408,.21973-.37988,.38672-.55371,.51758,.14404,.08594,.27295,.21777,.3252,.4248h0c.12305,.49023-.29834,.98145-1.25195,1.46191-.23682,.12012-.55566,.28027-1.00244,.35742-.21045,.03613-.3999,.04492-.56201,.0498-.00342,.09375-.02539,.19531-.08252,.2998-.16748,.30762-.51611,.4541-1.0415,.41895-.57812-.03027-1.0542-.14062-1.47412-.2373-.3667-.08398-.68262-.15527-.93066-.13867-.45996,.03711-.81445,.40527-1.23047,.88281l-1.03857,1.21387Z"/>
<path d="M25.67487,398.44443l-1.89885,.73215-.17456-.06124c-.8073-.2835-1.53896-.34404-2.17544-.18017-.1012,.02603-.20104,.05726-.30276,.08898-.40312,.1259-.90419,.28253-1.56489,.1731-.36856-.06186-1.24106-.27829-1.31082-.92935-.0206-.17481,.02342-.32264,.08871-.44325l-.08154-.02607c-.34871-.11704-.51673-.23804-.67855-.35462-.12443-.08953-.25269-.18209-.53173-.3068-.12238-.05473-.22777-.09474-.31639-.12854-.26825-.1028-.59295-.2438-.68607-.61817-.08564-.40359,.18929-.6988,.37121-.8944,.32441-.34907,.57561-.53458,.74226-.65753,.06095-.04476,.12942-.09552,.14895-.1173,.15524-.17801-.29525-1.17597-.46265-1.55256-.37909-.84505-.70713-1.57629-.23241-2.03747,.33943-.3303,.9105-.30085,1.74332,.09156,.25923,.12233,.47043,.26937,.6411,.40432,.04659-.16113,.14142-.31926,.32843-.42231h0c.44299-.24337,1.02502,.03964,1.73166,.84019,.17626,.1986,.41205,.4664,.6,.879,.08833,.1944,.14489,.37543,.19073,.531,.09155-.02047,.19537-.02498,.31093,.00378,.34004,.08398,.57016,.38405,.66942,.90118,.11736,.5669,.13137,1.05539,.14437,1.4861,.01178,.37601,.02295,.69968,.10193,.9354,.15256,.43551,.59861,.68502,1.16605,.9663l1.4376,.69671Z"/>
<path d="M24.62389,392.4862l-.22656-2.02246,.10352-.15332c.479-.70898,.72314-1.40137,.72607-2.05859,.00049-.10449-.00439-.20898-.00928-.31543-.01953-.42188-.04395-.94629,.22949-1.55762,.15332-.34082,.58398-1.12988,1.23145-1.03223,.17432,.02441,.30615,.10449,.40625,.19824l.0459-.07227c.20166-.30762,.36133-.43945,.51514-.56641,.11816-.09766,.24023-.19824,.43164-.43652,.08398-.10449,.14941-.19629,.20459-.27344,.16748-.2334,.38623-.51172,.77197-.50684,.41211,.01953,.62793,.36035,.771,.58594,.25537,.40234,.37109,.69238,.44775,.88477,.02783,.07031,.05957,.14941,.07568,.17383,.13281,.19531,1.2124,.0127,1.61914-.05371,.91357-.15234,1.7041-.28418,2.02979,.29199,.2334,.41211,.06006,.95703-.53076,1.66309-.18408,.21973-.37988,.38672-.55371,.51758,.14404,.08594,.27295,.21777,.3252,.4248h0c.12305,.49023-.29834,.98145-1.25195,1.46191-.23682,.12012-.55566,.28027-1.00244,.35742-.21045,.03613-.3999,.04492-.56201,.0498-.00342,.09375-.02539,.19531-.08252,.2998-.16748,.30762-.51611,.4541-1.0415,.41895-.57812-.03027-1.0542-.14062-1.47412-.2373-.3667-.08398-.68262-.15527-.93066-.13867-.45996,.03711-.81445,.40527-1.23047,.88281l-1.03857,1.21387Z"/>
<path d="m26.693 431.74-0.42383-0.26562-0.10254-0.48926 0.10254 0.48926-0.49414 0.05664c-0.00781-0.0459-0.03467-0.15137-0.0752-0.31641-0.22119-0.9043-0.89551-3.6562-1.458-7.9902-0.39258-3.0254-0.61475-6.1357-0.66064-9.2461-0.0459-3.1152 0.10156-5.4736 0.21973-7.3691 0.08936-1.4297 0.19775-2.791 0.3042-4.1172 0.2832-3.543 0.55029-6.8896 0.35156-10.595-0.04395-0.82715-0.13623-2.5488-1.1421-4.3809-0.5835-1.0625-1.3872-2.0059-2.3892-2.8027l0.62305-0.7832c1.106 0.88086 1.9951 1.9258 2.6431 3.1055 1.1152 2.0312 1.2158 3.9072 1.2642 4.8086 0.20215 3.7705-0.06787 7.1494-0.354 10.727-0.10547 1.3213-0.21387 2.6768-0.30273 4.1006-0.11719 1.8779-0.26318 4.2158-0.21777 7.291 0.04492 3.0732 0.26465 6.1455 0.65186 9.1328 0.55566 4.2793 1.2202 6.9902 1.4385 7.8809 0.11621 0.47559 0.14062 0.5752 0.02148 0.76367z"/>
<path d="M19.09166,386.30651c-.04102,0-.08252-.00098-.12451-.00391-.85156-.0459-1.64014-.55566-2.34424-1.51465-.33008-.45117-.49902-.96582-.83594-1.99219-.05225-.1582-.30615-.96094-.46045-2.06543-.10107-.72168-.08838-1.02344,.05469-1.29004,.15869-.29688,.41553-.50391,.70459-.64355-.0127-.0957-.00244-.19434,.03906-.29492,.17041-.41699,.62354-.3623,.86865-.33594,.12402,.01562,.27881,.03613,.4458,.02734,.2627-.0127,.40381-.09082,.61768-.20801,.20459-.1123,.45898-.25195,.83643-.3291,.74414-.15527,1.36768,.05566,1.57324,.125,1.08154,.36035,1.61475,1.20117,2.23193,2.1748,.12305,.19531,.54541,.90625,.82422,1.88086,.20117,.70312,.17285,1.01562,.1123,1.24805-.12305,.47754-.41357,.75098-1.15137,1.35449-.77051,.63184-1.15723,.94824-1.48926,1.14062-.77295,.44629-1.2583,.72656-1.90283,.72656Z"/>
</g>
<path d="m611.31 281.69 0.45897-35.734-13.717-3.7733 0.41485 39.513-3.1559 29.198 0.08197 0.03057c-1.323 1.3304-2.3964 3.454-2.8535 5.9641-0.834 4.5805 0.69469 8.6952 3.4143 9.1903 2.7197 0.49517 5.6005-2.8166 6.4344-7.3971 0.34236-1.8803 0.28121-3.677-0.09166-5.1821l0.12212 0.04556 8.8913-31.855z" fill="#a0616a"/>
<path d="m586.36 197.69s6.2251-4.7604 10.619 2.1971 16.478 42.111 16.478 42.111 3.4946 16.112 2.6628 18.492-1.9304 23.329-1.9304 23.329l-17.169-3.114 0.4152-20.215-16.361-26.114 5.2842-36.686z" fill="#ccc"/>
<path d="m471.38 184.71 24.06 26.424 12.599-6.6074-27.278-28.589-17.627-23.49-0.08077 0.03362c0.05848-1.8753-0.60691-4.1599-1.9866-6.306-2.5177-3.9164-6.4437-5.8793-8.769-4.3845-2.3253 1.4949-2.1694 5.8815 0.34828 9.7979 1.0335 1.6077 2.3048 2.8788 3.6048 3.724l-0.12034 0.05009 15.25 29.347z" fill="#a0616a"/>
<path d="m548.33 229.06s-1.2988 7.7283-9.2596 5.6443-40.79-19.521-40.79-19.521-13.553-9.3874-14.57-11.695c-1.0171-2.3071-14.516-18.365-14.516-18.365l14.671-9.4456 13.497 15.055 29.783 7.9128 21.184 30.414z" fill="#ccc"/>
<circle cx="552.88" cy="158.38" r="19.108" fill="#a0616a"/>
<polygon points="586.4 493.12 574.55 493.11 568.9 447.37 586.41 447.37" fill="#a0616a"/>
<path d="m545.77 492.85c-0.36925 0.62189-0.56409 2.6291-0.56409 3.3523 0 2.2229 1.802 4.025 4.025 4.025h36.726c1.5165 0 2.7459-1.2294 2.7459-2.7459v-1.529s1.8168-4.5955-1.9237-10.26c0 0-4.6489 4.4352-11.596-2.5115l-2.0485-3.7111-14.828 10.845-8.2192 1.0117c-1.7982 0.22132-3.3925-0.03435-4.3174 1.5235h-1.4e-4z" fill="#2f2e41"/>
<polygon points="552.4 493.12 540.55 493.11 534.9 447.37 552.41 447.37" fill="#a0616a"/>
<path d="m511.77 492.85c-0.36925 0.62189-0.56409 2.6291-0.56409 3.3523 0 2.2229 1.802 4.025 4.025 4.025h36.726c1.5165 0 2.7459-1.2294 2.7459-2.7459v-1.529s1.8168-4.5955-1.9237-10.26c0 0-4.6489 4.4352-11.596-2.5115l-2.0485-3.7111-14.828 10.845-8.2192 1.0117c-1.7982 0.22132-3.3925-0.03435-4.3174 1.5235h-1.4e-4z" fill="#2f2e41"/>
<polygon points="594.82 294.6 517.82 298.6 534.82 472.6 551.82 471.6 557.82 366.6 560.32 329.1 570.51 468.72 587.82 468.6" fill="#2f2e41"/>
<path d="m572 182.6-29.163-1-19.526 19.417v63.61l-7.6253 39.972s51.287-5 61.343 5 28.157 3 28.157 3l-9.0506-52.886-4.0225-61.114-20.112-16z" fill="#ccc"/>
<path d="m561.3 177.1-16.255-3.8402-2.5083-9.8553s-0.06035-4.6456-2.2536-5.1638-6.0617-3.7477-6.0617-3.7477l3.7477-6.0617s-9.0322-0.97593-6.3208-2.6511 3.1037-0.92047 3.4886-4.965c0.79645-8.3686 26.403-7.1471 28.392-2.5554 0 0 3.2899 0.7772 4.9651 3.4886s2.5127 4.0671 3.6093 4.3262 1.6751 2.7114 1.6751 2.7114 3.8684 3.2296 2.5127 4.0671-2.392 5.2241-2.392 5.2241 3.6093 4.3262-4.4646 13.997l-4.3015 6.92-3.8328-1.8946z" fill="#2f2e41"/>
<path d="m582.17 205.2 1.1395-7.7482c0.83038-5.6467-2.915-10.575-7.9944-11.788v-3.2123c0-2.7614-2.2386-5-5-5s-5 2.2386-5 5v4.2849l-19 4.0303v-5.3152c0-2.7614-2.2386-5-5-5s-5 2.2386-5 5v5.0516l-1.8889-0.49274c-5.6409-1.4716-10.097 5.0005-6.5886 9.6562 0.04535 0.06018 0.09143 0.12042 0.13831 0.18066 4.6834 6.0216 6.0216 11.374 6.0216 11.374l-3.3453 18.065 3.8102 37.558c0.49103 4.8406 4.6572 8.4678 9.5194 8.2877l36.993-1.3701c4.8583-0.17993 8.7477-4.0973 8.8801-8.9572 0.47125-17.311 0.52545-54.986-7.6846-59.604z" fill="#3f3d56"/>
<path d="M549.05065,270.09803c-.51855,0-.95703-.3999-.99609-.92529l-2.00732-26.7627c-.0415-.55078,.37158-1.03076,.92236-1.07178,.5459-.04297,1.03076,.37158,1.07178,.92236l2.00732,26.7627c.0415,.55078-.37158,1.03076-.92236,1.07178-.02539,.00195-.05078,.00293-.07568,.00293Z" fill="#ffb6b6"/>
<path d="M533.99596,212.22401c-.48779,0-.91504-.35791-.98779-.85498-.08008-.54639,.29785-1.0542,.84424-1.13428l48.3291-7.08301c.54639-.0791,1.0542,.29785,1.13428,.84424s-.29785,1.0542-.84424,1.13428l-48.3291,7.08301c-.04932,.00732-.09814,.01074-.14648,.01074Z" fill="#ffb6b6"/>
<polygon points="536.2 271.7 517.32 226.1 522.32 228.1 542.43 268.5" fill="#3f3d56"/>
<path d="m654.04 500.16c0 0.46394-0.37609 0.84003-0.84003 0.84003h-582.2v-1.68h582.2c0.46393 0 0.84003 0.37609 0.84003 0.84003z" fill="#e6e6e6"/>
<path d="m447.68 143.67c3.2432 3.0511 7.4464 3.8508 9.3878 1.7865s0.8857-6.2104-2.3591-9.2621c-1.2794-1.2368-2.8365-2.1492-4.5408-2.6609l-13.905-12.754-5.846 6.6527 14.328 11.867c0.61508 1.6704 1.6213 3.1692 2.9346 4.3709z" fill="#ffb6b6"/>
<path d="m435.78 77.592s-16.953-21.119-23.461-19.492c-8 2-6 10-14.275 31.396-2.0724 5.3585-4.2488 10.552-0.06638 14.491l11.532 10.861 24.584 20.728 9.89-10.353-19.648-25.337 11.444-22.294z" fill="#6c63ff"/>
</svg>
