<?xml version="1.0" encoding="UTF-8"?>
<svg width="24" height="24" fill="none" viewBox="0 0 64 64" xmlns="http://www.w3.org/2000/svg">
<path d="m32 3c3.8083 0 7.5794 0.75011 11.098 2.2075 3.5185 1.4574 6.7154 3.5935 9.4083 6.2864 2.6929 2.6929 4.829 5.8898 6.2864 9.4083 1.4574 3.5184 2.2075 7.2895 2.2075 11.098s-0.7501 7.5794-2.2075 11.098c-1.4574 3.5185-3.5935 6.7154-6.2864 9.4083s-5.8898 4.829-9.4083 6.2864c-3.5184 1.4574-7.2895 2.2075-11.098 2.2075s-7.5794-0.7501-11.098-2.2075c-3.5185-1.4574-6.7154-3.5935-9.4083-6.2864s-4.829-5.8898-6.2864-9.4083c-1.4574-3.5184-2.2075-7.2895-2.2075-11.098s0.75011-7.5794 2.2075-11.098c1.4574-3.5185 3.5935-6.7154 6.2864-9.4083 2.6929-2.6929 5.8899-4.829 9.4083-6.2864 3.5184-1.4574 7.2895-2.2075 11.098-2.2075z" stroke="currentColor" strokeLinecap="round" strokeLinejoin="round" strokeWidth="5"/>
<path d="m32 3c4.5778 0 9.0906 1.0837 13.169 3.1626 4.0785 2.0788 7.607 5.0936 10.297 8.7979 2.6898 3.7042 4.4644 7.9926 5.1788 12.514 0.7143 4.5217 0.348 9.1484-1.0689 13.501" stroke="currentColor" strokeLinecap="round" strokeLinejoin="round" strokeWidth="5"/>
</svg>